<svg width="19" height="23" viewBox="0 0 19 23" fill="none" xmlns="http://www.w3.org/2000/svg">
<rect x="0.5" y="4.3999" width="18" height="18" rx="9" fill="#FF5500"/>
<path fill-rule="evenodd" clip-rule="evenodd" d="M14.1949 10.1051C14.3262 10.2364 14.3999 10.4144 14.3999 10.6C14.3999 10.7856 14.3262 10.9636 14.1949 11.0949L8.59494 16.6949C8.46367 16.8261 8.28566 16.8998 8.10004 16.8998C7.91443 16.8998 7.73641 16.8261 7.60514 16.6949L4.80514 13.8949C4.67763 13.7629 4.60707 13.5861 4.60867 13.4025C4.61026 13.219 4.68388 13.0434 4.81367 12.9136C4.94345 12.7838 5.11902 12.7102 5.30256 12.7086C5.4861 12.707 5.66292 12.7776 5.79494 12.9051L8.10004 15.2102L13.2051 10.1051C13.3364 9.97387 13.5144 9.90015 13.7 9.90015C13.8857 9.90015 14.0637 9.97387 14.1949 10.1051Z" fill="white"/>
</svg>
