<!DOCTYPE svg PUBLIC "-//W3C//DTD SVG 1.1//EN" "http://www.w3.org/Graphics/SVG/1.1/DTD/svg11.dtd">
<!-- Uploaded to: SVG Repo, www.svgrepo.com, Transformed by: SVG Repo Mixer Tools -->
<svg height="800px" width="800px" version="1.1" id="Layer_1" xmlns="http://www.w3.org/2000/svg" xmlns:xlink="http://www.w3.org/1999/xlink" viewBox="-48.89 -48.89 586.72 586.72" xml:space="preserve" fill="#000000">
<g id="SVGRepo_bgCarrier" stroke-width="0">
<rect x="-48.89" y="-48.89" width="586.72" height="586.72" rx="293.36" fill="#dff4fb" strokewidth="0"/>
</g>
<g id="SVGRepo_tracerCarrier" stroke-linecap="round" stroke-linejoin="round"/>
<g id="SVGRepo_iconCarrier"> <g> <path style="fill:#9BC9FF;" d="M283.46,161.422V33.146c-35.366,0-64.138,28.772-64.138,64.138S248.095,161.422,283.46,161.422z"/> <path style="fill:#57A4FF;" d="M347.598,97.284c0-35.366-28.772-64.138-64.138-64.138v128.276 C318.826,161.422,347.598,132.65,347.598,97.284z"/> <path style="fill:#9BC9FF;" d="M250.923,268.524c24.677-29.818,61.953-48.848,103.591-48.848c3.913,0,7.784,0.178,11.613,0.507 c-18.498-27.252-49.194-43.761-82.667-43.761c-28.62,0-55.208,12.072-73.881,32.603 C228.525,224.349,243.054,244.926,250.923,268.524z"/> <path style="fill:#005ECE;" d="M128.751,160.409v-160c-44.112,0-80,35.888-80,80S84.638,160.409,128.751,160.409z"/> <path style="fill:#003F8A;" d="M208.751,80.409c0-44.112-35.888-80-80-80v160C172.863,160.409,208.751,124.522,208.751,80.409z"/> <path style="fill:#003F8A;" d="M250.923,268.524c-7.87-23.598-22.398-44.174-41.344-59.498 c-22.114-17.886-50.24-28.616-80.829-28.616v148.75h93.666C226.7,306.421,236.721,285.685,250.923,268.524z"/> <path style="fill:#005ECE;" d="M0,309.159v20h128.75v-148.75C57.76,180.409,0,238.169,0,309.159z"/> <path style="fill:#FFDA44;" d="M311.449,410.662l4.999-46.904l-31.614-35.011l46.154-9.739l23.526-40.888 c0,0.001,0-58.444,0-58.444c-41.638,0-78.914,19.03-103.591,48.848c-14.202,17.161-24.223,37.898-28.508,60.635 c-1.524,8.087-2.33,16.424-2.33,24.946c0,74.125,60.305,134.43,134.429,134.43v-97.121L311.449,410.662z"/> <path style="fill:#FCC324;" d="M366.127,220.183c-3.829-0.329-7.7-0.507-11.613-0.507v58.445l23.527,40.886l46.154,9.74 l-31.614,35.011l4.999,46.904l-43.066-19.247v97.121c74.125,0,134.43-60.305,134.43-134.43 C488.944,283.893,434.835,226.09,366.127,220.183z"/> <polygon style="fill:#2488FF;" points="330.988,319.007 284.834,328.747 316.448,363.757 311.449,410.662 354.515,391.414 397.581,410.662 392.582,363.757 424.196,328.747 378.042,319.006 354.515,278.12 "/> </g> </g>
</svg>