<svg id="SvgjsSvg2458" width="360" height="360" xmlns="http://www.w3.org/2000/svg" version="1.1" xmlns:xlink="http://www.w3.org/1999/xlink" xmlns:svgjs="http://svgjs.com/svgjs"><defs id="SvgjsDefs2459"></defs><g id="SvgjsG2460" transform="matrix(1,0,0,1,0,0)"><svg xmlns="http://www.w3.org/2000/svg" xmlns:xlink="http://www.w3.org/1999/xlink" enable-background="new 0 0 6000 4000" viewBox="0 0 6000 4000" width="360" height="360"><defs><path id="a" d="M1344.5 1602.9c-52 68 28.5 250.4 29.7 303.8 1.3 53.4-81.3-2.5-63.1 76.2 18.2 78.7 24.4 228.9 135.7 325.5 111.3 96.6 419.1-22.9 403.7-134.8-9.3-67.6-36.9-66.8-70.8-66-22.2.5-47.1 1.1-71.3-17.7-61.1-47.3 20.1-90.2-24.9-132.6-45-42.4-70.4-7.6-70.4-7.6s7.1-13.3 5.4-48c-1.8-34.6-34.7-71.1-88.6-83.1-53.9-12.1-36.2-149.7-47.7-178.9-12.3-31.2-46.8-67.9-83.9-67.9-18.1.1-36.8 8.8-53.8 31.1"></path></defs><clipPath id="b"><use overflow="visible" xlink:href="#a"></use></clipPath><linearGradient id="c" x1="1825.61" x2="1829.72" y1="2776.848" y2="2776.848" gradientTransform="scale(269.76 -269.76) rotate(-53.177 -1864.4 3205.114)" gradientUnits="userSpaceOnUse"><stop offset="0" stop-color="#b6f2f0" class="stopColorb6f2f0 svgShape"></stop><stop offset=".13" stop-color="#b6f2f0" class="stopColorb6f2f0 svgShape"></stop><stop offset=".258" stop-color="#90dbd9" class="stopColor90dbd9 svgShape"></stop><stop offset=".402" stop-color="#6dc6c4" class="stopColor6dc6c4 svgShape"></stop><stop offset=".548" stop-color="#52b5b4" class="stopColor52b5b4 svgShape"></stop><stop offset=".696" stop-color="#3ea9a8" class="stopColor3ea9a8 svgShape"></stop><stop offset=".845" stop-color="#33a2a1" class="stopColor33a2a1 svgShape"></stop><stop offset="1" stop-color="#2fa09f" class="stopColor2fa09f svgShape"></stop></linearGradient><path fill="url(#c)" d="m1659.9 1296.8 605.6 808.9-767.1 574.4-605.6-809z" clip-path="url(#b)"></path><g opacity=".38"><defs><path id="d" d="M1159.2 1420.6h842.5v1072.6h-842.5z"></path></defs><clipPath id="e"><use overflow="visible" xlink:href="#d"></use></clipPath><g clip-path="url(#e)"><defs><path id="f" d="M1159.2 1420.6h842.5v1072.6h-842.5z"></path></defs><clipPath id="g"><use overflow="visible" xlink:href="#f"></use></clipPath></g></g><defs><path id="h" d="M1344.5 1602.9c-52 68 28.5 250.4 29.7 303.8 1.3 53.4-81.3-2.5-63.1 76.2 18.2 78.7 24.4 228.9 135.7 325.5 111.3 96.6 419.1-22.9 403.7-134.8-9.3-67.6-36.9-66.8-70.8-66-22.2.5-47.1 1.1-71.3-17.7-61.1-47.3 20.1-90.2-24.9-132.6-45-42.4-70.4-7.6-70.4-7.6s7.1-13.3 5.4-48c-1.8-34.6-34.7-71.1-88.6-83.1-53.9-12.1-11.7-145.2-23.2-183.3-6.3-20.8-56.9-61.1-104.7-61.1-21.1 0-41.6 7.9-57.5 28.7"></path></defs><clipPath id="i"><use overflow="visible" xlink:href="#h"></use></clipPath><path fill="#2d65af" d="M1757.8 2203.1c-45.7 9.2-85.2-29-115-58.1-29-28.4-56.3-58.6-81.6-90.2-52-65-96.2-136.2-132-211.4-20.6-43.2-38.4-87.8-53.3-133.3-.7-2.2-4.3-1.3-3.5 1 26.9 82 63.1 160.9 108.1 234.6 43.8 71.8 95.8 138.7 155.6 197.8 31.8 31.4 73.6 73 122.8 63.1 2.2-.4 1.2-4-1.1-3.5" clip-path="url(#i)" class="color2d65af svgShape"></path><path fill="#2d65af" d="M1426.9 1971.4c18.2 11.8 35.7 24.4 52.6 38l11.7 9.6c2.8 2.3 5.6 5.3 9.1 6.6 3.8 1.5 7.7 0 11.5-1.1 5.6-1.5 11.3-3 16.9-4.5 2.3-.6 1.3-4.2-1-3.5-5 1.3-10 2.7-15 4-2.3.6-4.8 1.6-7.2 1.9-4 .5-5.9-1.3-8.8-3.6-7.3-6-14.5-12.1-21.9-17.9-14.8-11.6-30.2-22.5-46-32.7-2-1.3-3.9 1.9-1.9 3.2M1576 2070.9c-1.8-9.8-.3-20.4-.6-30.3-.3-9.4-1-18.8-2.1-28.1-2.3-18.6-6.2-36.9-11.7-54.8-.7-2.3-4.2-1.3-3.5 1 5.8 18.8 9.9 38.1 12.1 57.7 1 9.3 1.6 18.7 1.8 28.1.2 9.1-1 18.4.6 27.4.3 2.3 3.9 1.3 3.4-1M1517 2096.4c18.1 4.7 35.6 11.2 52.3 19.4 7.2 3.6 14.5 9 22.3 11 8.1 2 16.2-2.2 24.2.2 2.3.7 3.2-2.9 1-3.5-8.1-2.4-16.1 1.8-24.2-.2-4.7-1.2-9-4.1-13.2-6.4-3.8-2-7.7-4-11.5-5.9-16-7.7-32.7-13.8-49.9-18.2-2.3-.5-3.3 3-1 3.6M1668.5 2148.4c-7.7-31.5-22-60.7-36.2-89.6-1-2.1-4.2-.3-3.2 1.9 14.1 28.7 28.2 57.6 35.9 88.8.5 2.2 4.1 1.2 3.5-1.1M1599.2 2212.6c13 .8 25.8 2.9 38.5 6.1 11.8 3 23.7 6.3 36 5.1 2.3-.2 2.4-3.9 0-3.7-12.9 1.3-25.3-2.6-37.8-5.6-12-2.9-24.3-4.8-36.7-5.5-2.4-.2-2.4 3.4 0 3.6M1467.3 1895.8c3.3-2.8 3.7-7.4 4-11.4.5-6.3.8-12.5.8-18.8 0-12.4-1.1-24.8-3-37-.4-2.3-3.9-1.3-3.5 1 1.8 11.1 2.8 22.3 2.9 33.5.1 5.4-.1 10.9-.4 16.3-.2 4.1.3 10.9-3.3 13.8-1.9 1.5.7 4.1 2.5 2.6" clip-path="url(#i)" class="color2d65af svgShape"></path><path fill="#80dbda" d="M1347.1 1460.3c-8.7-14.1-12.3-63.8-30.7-67-14.2-2.5-17.6 15.8-18.9 26.5-12.8 56.4 79 91.3 49.6 40.5" class="color80dbda svgShape"></path><defs><path id="j" d="M4820 471.1c18.4 42 3.6 259.8-62.8 306.1-66.4 46.2-91 113.8-74.2 161.8 16.8 47.9 33.8 62 33.8 62s-53.7-33.2-91.2 49.2 96.4 95.6 39.7 193.6-187.3 31.8-146.3 192 328 127 425.5-65.6c97.5-192.5 219.1-374.8 200.2-491.5-10.4-64.3-39.6-56.3-68.4-48.4-23.5 6.5-46.8 12.9-59.3-19.9-27.8-73.1-19.6-365-127.8-428.3-23.2-13.6-40.5-19.2-53.1-19.2-46.4 0-30.5 75.2-16.1 108.2"></path></defs><clipPath id="k"><use overflow="visible" xlink:href="#j"></use></clipPath><linearGradient id="l" x1="1824.184" x2="1828.294" y1="2779.59" y2="2779.59" gradientTransform="scale(-244.822 244.822) rotate(24.688 7244.971 -2826.381)" gradientUnits="userSpaceOnUse"><stop offset="0" stop-color="#b6f2f0" class="stopColorb6f2f0 svgShape"></stop><stop offset=".304" stop-color="#b6f2f0" class="stopColorb6f2f0 svgShape"></stop><stop offset=".406" stop-color="#90dbd9" class="stopColor90dbd9 svgShape"></stop><stop offset=".522" stop-color="#6dc6c4" class="stopColor6dc6c4 svgShape"></stop><stop offset=".639" stop-color="#52b5b4" class="stopColor52b5b4 svgShape"></stop><stop offset=".757" stop-color="#3ea9a8" class="stopColor3ea9a8 svgShape"></stop><stop offset=".876" stop-color="#33a2a1" class="stopColor33a2a1 svgShape"></stop><stop offset="1" stop-color="#2fa09f" class="stopColor2fa09f svgShape"></stop></linearGradient><path fill="url(#l)" d="m5631.6 1380.9-1034 475.3L4010 578l1034-475.3z" clip-path="url(#k)"></path><g opacity=".38"><defs><path id="m" d="M4361.3 210.9h937v1475.4h-937z"></path></defs><clipPath id="n"><use overflow="visible" xlink:href="#m"></use></clipPath><g clip-path="url(#n)"><defs><path id="o" d="M4361.3 210.9h937v1475.4h-937z"></path></defs><clipPath id="p"><use overflow="visible" xlink:href="#o"></use></clipPath></g></g><defs><path id="q" d="M4820 471.1c18.4 42 3.6 259.8-62.8 306.1-66.4 46.2-91 113.8-74.2 161.8 16.8 47.9 33.8 62 33.8 62s-53.7-33.2-91.2 49.2 96.4 95.6 39.7 193.6-187.3 31.8-146.3 192 328 127 425.5-65.6c97.5-192.5 219.1-374.8 200.2-491.5-10.4-64.3-39.6-56.3-68.4-48.4-23.5 6.5-46.8 12.9-59.3-19.9-27.8-73.1-19.6-365-127.8-428.3-23.2-13.6-40.5-19.2-53.1-19.2-46.4 0-30.5 75.2-16.1 108.2"></path></defs><clipPath id="r"><use overflow="visible" xlink:href="#q"></use></clipPath><path fill="#2d65af" d="M4662 1429.8c59-11 92.9-69.5 116-119.3 26.1-56.3 48-114.6 66.4-173.8 18.7-60.2 33.7-121.6 44.9-183.7 11.4-62.9 19.1-126.4 23-190.2 4-64.4 4.2-129.1.6-193.6-.5-8.2-1-16.5-1.6-24.7-.2-3.4-5.6-3.5-5.4 0 4.5 63.5 5.3 127.3 2.5 190.9-2.9 63.1-9.3 126.1-19.5 188.5-10.1 61.5-23.7 122.4-41 182.2-17 58.9-37.6 116.8-61.9 173-22.5 52.2-49.7 116.3-106.1 139.7-6.3 2.6-12.7 4.5-19.4 5.7-3.3.7-1.9 5.9 1.5 5.3" clip-path="url(#r)" class="color2d65af svgShape"></path><path fill="#2d65af" d="M4976.8 924.3c-16.1 23.1-31.2 46.9-45.1 71.4-7 12.2-13.1 24.9-20.1 37-1.9 3.3-4 6-7.8 7-3.7 1-7.7 1.1-11.5 1.6-7.4.9-14.9 1.9-22.3 2.8-3.4.4-3.4 5.8 0 5.4 7.8-1 15.5-2 23.3-2.9 5.8-.7 13-.5 17.7-4.4 5-4.1 7.5-11 10.4-16.5 3.6-6.9 7.3-13.7 11.1-20.5 15-26.9 31.4-52.9 48.9-78.2 2.1-2.9-2.6-5.5-4.6-2.7M4839.5 1143.7c-2.5-13.1-9.7-25.3-14.5-37.7-5-13-9.4-26.2-13.2-39.6-7.7-27.3-12.8-55.3-15.3-83.5-.3-3.4-5.7-3.5-5.4 0 2.5 28.1 7.4 55.9 15 83.1 3.7 13.4 8.1 26.6 13 39.6 4.9 12.9 12.5 25.8 15.1 39.4.8 3.5 6 2.1 5.3-1.3M4925.4 1142.2c-21.5 15.9-41.3 34-59.1 53.9-4.5 5-8.9 10.2-13.1 15.4-4.2 5.2-8.3 11-14 14.6-9.9 6.1-22.1 5.1-31.3 12.8-2.7 2.2 1.2 6 3.8 3.8 9-7.6 22.1-6.2 31.6-12.9 5-3.5 8.7-8.4 12.5-13 4.2-5.3 8.6-10.4 13.1-15.5 17.8-20.1 37.7-38.4 59.3-54.4 2.7-2.1 0-6.8-2.8-4.7M4757 1300c-6.9-46.5-3.7-93.5-.4-140.2.2-3.5-5.1-3.4-5.4 0-3.3 47.2-6.4 94.6.6 141.6.5 3.4 5.7 2 5.2-1.4M4878.8 1344.8c-16.9 8.1-33 17.9-48.1 29-14.4 10.5-28.6 22-45.9 27.1-3.3 1-1.9 6.2 1.4 5.2 17.3-5.1 31.6-16.1 45.9-26.7 15.6-11.5 32-21.6 49.5-29.9 3.1-1.5.4-6.2-2.8-4.7M4886.5 842.1c-6.6-2-10.1-13.2-12.7-18.9-3.4-7.2-6.6-14.6-9.4-22.1-5.7-14.7-10.2-29.9-13.8-45.2-.8-3.4-6-1.9-5.2 1.4 4.1 17.5 9.4 34.6 16.2 51.2 3.2 7.8 6.6 15.5 10.4 23.1 3 6.1 6.1 13.5 13.2 15.6 3.1 1.1 4.6-4.1 1.3-5.1" clip-path="url(#r)" class="color2d65af svgShape"></path><path fill="#80dbda" d="M4678.9 254.1c-11.5-19.8-71.3-60.4-62.1-82.6 7-17 32.5-7.2 46.7-.7 79.8 27.9 58.1 152.4 15.4 83.3M4611.7 460.9c-11.6-10.1-59.2-24.1-57.7-39.5 1.2-11.8 19.9-10.5 30.7-9 58.2 2.4 69.1 83.3 27 48.5" class="color80dbda svgShape"></path><path fill="#2c64ad" d="M4536.7 2452.4c-107.6 127.1-2648 106.6-2731.3 33.4-83.3-73.2-247.3-1775.4-165.8-1899 98.1-148.8 2894-90.3 2995.6-11.2 101.5 79.1 9 1749.7-98.5 1876.8" class="color2c64ad svgShape"></path><path fill="#9bc6ee" d="M4578.6 2438c-107.6 127.1-2648 106.6-2731.3 33.4-83.3-73.2-207.3-1782.7-132.1-1910.2 75.2-127.4 2860.3-79.1 2961.9 0s9.1 1749.7-98.5 1876.8" class="color9bc6ee svgShape"></path><g opacity=".58"><defs><path id="s" d="M1542.3 332h3328.9v2346.6H1542.3z"></path></defs><clipPath id="t"><use overflow="visible" xlink:href="#s"></use></clipPath><g clip-path="url(#t)"><defs><path id="u" d="M1542.3 332h3328.9v2346.6H1542.3z"></path></defs><clipPath id="v"><use overflow="visible" xlink:href="#u"></use></clipPath></g></g><path fill="#c5dcef" d="M2284.2 692.1s-3.2-144.8 276.5-125.9c509.6 34.4 1202.8-72.1 1202.8 83.6 0 242 27.9 620.7 7.4 1143.1-18.9 482.9 88.3 654.1-130.4 657.3-218.7 3.2-1422 213.6-1404-83.7s47.7-1543.7 47.7-1674.4M3791.4 678.2s-8.8-72.6 232.3-81.3c261-9.4 489.8-.8 602.6 37.3 15.8 240-33.9 636.9-4.2 1116.6 29.6 479.7 115.8 665.5 4.2 668.7-111.6 3.2-607.6 44.7-770.1 10.2-85.6-167.1-44.8-1635.6-64.8-1751.5" class="colorc5dcef svgShape"></path><path fill="#4a88ef" d="M1928.4 698c6.6-.5 13.2-.9 19.7-1.4 1.6-.1 2.6.1 2.9 2 2.1 13.1.8 25.4-7.5 36.3-7.7 10.1-18.1 15.5-30.6 16.8-24.9 2.6-45.7-11-53.4-34.8-6-18.8 2.6-42 20-53 17.2-10.8 34.7-11.3 52.3-1 5.6 3.3 5.5 3.4 1.3 8.5-4.3 5.1-4.2 5-10 1.9-11.8-6.2-23.6-5.9-34.9 1.1-11 6.8-16.4 17.1-16 29.9.5 16.7 10.7 29.5 26.1 33.3 13.8 3.5 28.9-1.9 35.8-12.9 2.1-3.3 3.1-7.1 3.8-10.9.5-2.9-.7-3.3-3.1-3.1-8.1.6-16.2 1-24.3 1.7-2.8.2-4-.3-3.8-3.3.1-2.4-.1-4.8-.5-7.1-.3-2.2.5-2.8 2.6-2.9 6.6-.2 13.1-.7 19.6-1.1M2151 706.6c.6 9.3 1.5 18.5 1.9 27.8.4 10.6-2.9 19.8-12.2 25.7-13.9 8.8-32.8 6-42.5-8.9-1.2-1.8-1.6-3.2 1.1-4.1 2-.7 3.9-1.8 5.7-3 2.2-1.4 3.5-1.3 5.2 1.1 6 8.7 18.1 9.8 25.4 2.5 4.2-4.3 4.6-9.8 3.9-15.4-.3-2.3-1.7-1.2-2.8-.3-3.6 3.1-7.7 4.7-12.3 5.2-16.2 1.9-30.1-11.3-32.4-24.7-2.5-14.5 4-28.4 17-34.6 8.1-3.9 16.5-4.2 24.4 1.1 1.7 1.1 2.6 1.1 2.4-1.2-.1-1.5.7-1.9 2-1.9 2.5-.1 5-.2 7.4-.6 2.8-.5 3.8.3 3.9 3.3.6 9.3 1.4 18.6 1.9 28 .1 0 .1 0 0 0m-12.2-1.6c0-.6-.1-1.3-.1-1.9-1-7.2-6.2-13.7-12.4-15.2-7-1.7-13.6 1-18 7.3-4.7 6.9-3.7 18.4 2.1 24.4 6.7 6.9 18 6.9 24.2-.3 3.5-4.1 4.6-9 4.2-14.3" class="color4a88ef svgShape"></path><path fill="#f9be13" d="M2057.7 741.8c-17.8 1.3-32.4-11.2-33.6-28.8-1.2-17.8 11.4-31.9 29.7-33.2 15.7-1.2 31.3 10.4 32.8 28.4 1.3 17.7-11.5 32.5-28.9 33.6m-1.4-12.5c10-.5 16.9-8.7 16.3-19.2-.6-10.7-8.5-18.4-18.2-17.9-10 .5-17.1 8.8-16.7 19.3.6 10.8 9.7 19.1 18.6 17.8" class="colorf9be13 svgShape"></path><path fill="#e4493c" d="M2018.9 713.3c1.2 17.4-11.3 31.8-28.5 33-18 1.2-32.3-11-33.5-28.5-1.2-17.9 11.1-32 29.2-33.3 17.1-1.2 31.6 11.5 32.8 28.8m-29.8 20.7c9.9-.7 16.9-9.3 16.2-19.7-.8-10.7-8.7-18.1-18.6-17.4-9.9.7-16.9 9.1-16.2 19.7.7 10.6 8.7 18.1 18.6 17.4M2211.8 730.9c-14.1.6-25.4-6.5-30.1-19-5.2-13.7-1.7-28.2 8.9-36.8 12.8-10.4 32.1-7 40.9 7.3 4.9 7.9 4.9 7.9-3.3 12-9.8 4.9-19.5 9.7-29.3 14.5-3.1 1.5-3.2 2.3-.8 4.8 6.7 7 18 6.6 24.8-.8 3.3-3.6 3.3-3.6 7.7-1.2.3.2.6.3.8.5 6.2 3.5 6.2 3.6 1.3 9-5.7 6-12.7 9.3-20.9 9.7m-3.4-49.8c-9 .6-16.2 8.6-16 16.9.1 1.6.4 2.2 2.1 1.3 7.5-3.8 15-7.6 22.6-11.3 2.3-1.1 1.8-2.2.3-3.6-2.7-2.6-6.1-3.2-9-3.3" class="colore4493c svgShape"></path><path fill="#39a957" d="M2172.4 686.2c1 14.1 1.9 28.2 3 42.4.2 2.5-.5 3.3-2.9 3.3-2.5 0-5 .2-7.4.6-2.5.4-3.4-.3-3.5-3-.5-9.4-1.3-18.8-1.9-28.1-1.3-18.8-2.6-37.5-4-56.2-.2-2.7.4-3.7 3.2-3.7 2.5 0 5-.2 7.4-.5 2.5-.4 3.1.6 3.3 2.9.8 14 1.8 28.1 2.8 42.3" class="color39a957 svgShape"></path><path fill="#ffffff" d="M3418.1 586.8h-934.5c-50.3 0-91.1 40.8-91.1 91.1s48.6 109.3 98.9 109.3l926.7-18.2c50.3 0 91.1 8.7 91.1-72s-40.8-110.2-91.1-110.2" class="colorfff svgShape"></path><path fill="#9bc6ee" d="M3363.9 605.7c-28.9 0-52.3 23.4-52.3 52.3 0 28.8 23.4 52.3 52.3 52.3 28.8 0 52.3-23.4 52.3-52.3-.1-28.9-23.5-52.3-52.3-52.3m0 92.4c-22.2 0-40.1-18-40.1-40.1 0-22.2 18-40.1 40.1-40.1 22.2 0 40.1 18 40.1 40.1s-18 40.1-40.1 40.1" class="color9bc6ee svgShape"></path><path fill="#9bc6ee" d="M3411.6 706.6s45.1 40.3 52.5 34.3c7.4-6.1 9.1-9.1 0-14.3-9.1-5.2-61.8-40.3-64.5-38.3-2.8 1.8-6.4 6.7 12 18.3" class="color9bc6ee svgShape"></path><path fill="#231f20" d="M2492.7 638.9s1.4 127.4 9.8 121.5c8.5-5.9 6.4-117-.1-127.4-6.5-10.4-9.7 5.9-9.7 5.9" class="color231f20 svgShape"></path><path fill="#d2eed2" d="M2656 1638.9c-49.3-74 86.3-8.2 131.5-45.2 20.5-16.4 32.9-78.1-8.2-82.2-74-8.2-147.9 20.5-184.9-61.6 20.5-4.1 65.8 4.1 49.3-16.4-24.7-37-78.1 4.1-102.7-28.8-16.4-24.7 37-20.5 41.1-49.3 2.3-20.4-8-34.5-22.4-43.1-124.9 1.4-209.7 4.7-214.7 10.6-20.2 23.4-30 300.8 26.5 345.7 19.8 15.8 189.5 30.8 403.2 42.3-40.1-33.2-98.1-41.1-118.7-72" class="colord2eed2 svgShape"></path><path fill="#aadaff" d="M3699.6 1339.5c-13.2-8-170.6-15.2-373.6-20.3 16.3 12.5 28.5 25.7 16.3 40.2-12.3 16.4-57.5 24.7-57.5 37-4.1 45.2 82.2 45.2 74 98.6 24.7 4.1 61.6 4.1 57.5 32.9-7.8 89.4 61.7 149.4 121.4 204.3 116.9-.4 197.3-3.8 208.2-11.3 45.5-31.2-7.2-357.8-46.3-381.4" class="coloraadaff svgShape"></path><path fill="#f5f5f5" d="M3537.7 1732.2c-59.7-54.9-129.1-114.9-121.4-204.3 4.1-28.8-32.9-28.8-57.5-32.9 8.2-53.4-78.1-53.4-74-98.6 0-12.3 45.2-20.5 57.5-37 12.1-14.5-.1-27.7-16.3-40.2-80.6-2-168.3-3.7-257.2-5 18.6 7.3 37.1 15.9 55.7 20.5-12.3 4.1-24.7 8.2-32.9 20.5 8.2 4.1 24.7-4.1 16.4 8.2-12.3 28.8-57.5 16.4-74 28.8-20.5 28.8 12.3 74 53.4 65.8 28.8-4.1 49.3-61.6 74-24.7 20.5 28.8-32.9 28.8-53.4 32.9 8.2 12.3 16.4 12.3 28.8 12.3-32.9 24.7-74 16.4-111 28.8-12.3 8.2-4.1 24.7 0 32.9 20.5 24.7 53.4 32.9 86.3 28.8 4.1-4.1 12.3-12.3 8.2-16.4-8.2-4.1-16.4-8.2-24.7-4.1 37-16.4 74-28.8 98.6 8.2 12.3 20.5 20.5 41.1 16.4 61.6 16.4-4.1 37-8.2 49.3-24.7 4.1 8.2 12.3 16.4 8.2 24.7-24.7 16.4-61.6 0-74 16.4-8.2 12.3-20.5 45.2 8.2 61.6s65.8 0 94.5 16.4c6.5 4.9 11.7 10.5 14.6 17.2 83.3 1.8 160.6 2.5 226.3 2.3" class="colorf5f5f5 svgShape"></path><path fill="#d2eed2" d="M3297.1 1712.8c-28.8-16.4-65.8 0-94.5-16.4-28.8-16.4-16.4-49.3-8.2-61.6 12.3-16.4 49.3 0 74-16.4 4.1-8.2-4.1-16.4-8.2-24.7-12.3 16.4-32.9 20.5-49.3 24.7 4.1-20.5-4.1-41.1-16.4-61.6-24.7-37-61.6-24.7-98.6-8.2 8.2-4.1 16.4 0 24.7 4.1 4.1 4.1-4.1 12.3-8.2 16.4-32.9 4.1-65.8-4.1-86.3-28.8-4.1-8.2-12.3-24.7 0-32.9 37-12.3 78.1-4.1 111-28.8-12.3 0-20.5 0-28.8-12.3 20.5-4.1 74-4.1 53.4-32.9-24.7-37-45.2 20.5-74 24.7-41.1 8.2-74-37-53.4-65.8 16.4-12.3 61.6 0 74-28.8 8.2-12.3-8.2-4.1-16.4-8.2 8.2-12.3 20.5-16.4 32.9-20.5-18.6-4.6-37.1-13.2-55.7-20.5-173.6-2.5-351.2-3.5-487.1-2.2 10.6 20.5 1.8 49 16.8 63.9 24.7 28.8 82.2 28.8 69.9 78.1-4.1-4.1-8.2 8.2-12.3 4.1 0 16.4 12.3 16.4 20.5 20.5 49.3 4.1 119.2-8.2 139.7 37 32.9 65.8-37 98.6-98.6 102.7-4.1 0-24.7 4.1-16.4 8.2 48.2 26.5 90.7 60.1 135.9 87.4 153.6 7.5 323.6 13.2 474.7 16.1-3.3-6.8-8.5-12.4-15.1-17.3" class="colord2eed2 svgShape"></path><path fill="#ffffff" d="M2717.7 1618.3c61.6-4.1 131.5-37 98.6-102.7-20.5-45.2-90.4-32.9-139.7-37-8.2-4.1-20.5-4.1-20.5-20.5 4.1 4.1 8.2-8.2 12.3-4.1 12.3-49.3-45.2-49.3-69.9-78.1-14.9-14.9-6.2-43.4-16.8-63.9-7.5.1-14.9.1-22.1.2 14.4 8.6 24.7 22.7 22.4 43.1-4.1 28.8-57.5 24.7-41.1 49.3 24.7 32.9 78.1-8.2 102.7 28.8 16.4 20.5-28.8 12.3-49.3 16.4 37 82.2 111 53.4 184.9 61.6 41.1 4.1 28.8 65.8 8.2 82.2-45.2 37-180.8-28.8-131.5 45.2 20.6 30.9 78.6 38.9 118.7 71.9 20.4 1.1 41.3 2.2 62.4 3.2-45.2-27.4-87.7-60.9-135.9-87.4-8.1-4.1 12.5-8.2 16.6-8.2M2461.2 1756.1s-161.3 58.1-62.4 54.9c98.8-3.2 990.9 11.3 1114.1 23.2 123.2 11.9 79.7-27.4 52.7-29.7-26.9-2.3-1084.2-63.2-1104.4-48.4M2413.8 1914.4s-113.9 39.1-15 35.9c98.8-3.2 1139.2 15.9 1262.4 27.8 123.2 11.9 82.7-41.4 55.8-43.7-27-2.2-1283-34.7-1303.2-20M2462.4 2066.5s-160.9 39.1-62.1 35.8c98.8-3.2 990.9 11.3 1114.1 23.2 123.2 11.9 229.4-51.8 202.5-54-26.9-2.3-1234.3-19.7-1254.5-5" class="colorfff svgShape"></path><path fill="#75afe8" d="M998.8 3287.9s-579.5 222.5 334.6 269.3c914.1 46.9 3870.5 395.4 3870.1-153.3-37.7-260.5-3730.7-303.4-4204.7-116" class="color75afe8 svgShape"></path><g opacity=".38"><defs><path id="w" d="M817.7 3172.7h4385.8v536.7H817.7z"></path></defs><clipPath id="x"><use overflow="visible" xlink:href="#w"></use></clipPath><g clip-path="url(#x)"><defs><path id="y" d="M998.8 3287.9s-579.5 222.5 334.6 269.3c914.1 46.9 3870.5 395.4 3870.1-153.3-37.7-260.5-3730.7-303.4-4204.7-116"></path></defs><clipPath id="z"><use overflow="visible" xlink:href="#y"></use></clipPath><linearGradient id="A" x1="1829.072" x2="1833.182" y1="2779.96" y2="2779.96" gradientTransform="matrix(1067.1887 0 0 -1067.1887 -1951147.875 2970268.25)" gradientUnits="userSpaceOnUse"><stop offset="0" stop-color="#ffffff" class="stopColorfff svgShape"></stop><stop offset=".031" stop-color="#ededed" class="stopColorededed svgShape"></stop><stop offset=".125" stop-color="#bebdbe" class="stopColorbebdbe svgShape"></stop><stop offset=".224" stop-color="#959393" class="stopColor959393 svgShape"></stop><stop offset=".326" stop-color="#726f70" class="stopColor726f70 svgShape"></stop><stop offset=".434" stop-color="#555253" class="stopColor555253 svgShape"></stop><stop offset=".548" stop-color="#3f3b3c" class="stopColor3f3b3c svgShape"></stop><stop offset=".671" stop-color="#2f2b2c" class="stopColor2f2b2c svgShape"></stop><stop offset=".81" stop-color="#262223" class="stopColor262223 svgShape"></stop><stop offset="1" stop-color="#231f20" class="stopColor231f20 svgShape"></stop></linearGradient><path fill="url(#A)" d="M419.4 3100.5H5204v852.1H419.4z" clip-path="url(#z)"></path></g></g><g opacity=".9"><defs><path id="B" d="M666.9 3032.1H5352V3854H666.9z"></path></defs><clipPath id="C"><use overflow="visible" xlink:href="#B"></use></clipPath><g clip-path="url(#C)"><defs><path id="D" d="M666.9 3032.1H5352V3854H666.9z"></path></defs><clipPath id="E"><use overflow="visible" xlink:href="#D"></use></clipPath></g></g><path fill="#4676b7" d="M5101.2 3493.6c0 82.1-294.3 104.7-381.4 114.9-87.1 10.2-512.1-5.7-512.2-60.3 0-54.6 893.6-136.7 893.6-54.6" class="color4676b7 svgShape"></path><defs><path id="F" d="M4454.9 3441.5c19.2 10 39.7 16.7 60.6 6.5-1.5-5.8 1.3-40.6 1.3-40.6l-53.4-6.6s-3.1 40.2-8.5 40.7"></path></defs><clipPath id="G"><use overflow="visible" xlink:href="#F"></use></clipPath><linearGradient id="H" x1="1772.932" x2="1777.042" y1="2718.952" y2="2718.952" gradientTransform="rotate(-172.968 14277.03 22555.927) scale(14.8366)" gradientUnits="userSpaceOnUse"><stop offset="0" stop-color="#ffc7d0" class="stopColorffc7d0 svgShape"></stop><stop offset="1" stop-color="#e65e75" class="stopColore65e75 svgShape"></stop></linearGradient><path fill="url(#H)" d="m4523.7 3401.7-67.9-8.4-7.9 64.1 67.9 8.4z" clip-path="url(#G)"></path><path fill="#e65e75" d="M4519.7 3514.2c-3.9 13.9-13.3 23.2-32.5 20.5-37.5-5.4-131.9-7.4-153.3-25.8-3.1-2.7-5.1-5.8-6.3-9.3 63.6 15.1 128.4 29.2 192.1 14.6" class="colore65e75 svgShape"></path><path fill="#304c6a" d="M4327.6 3499.6c-6.7-20.4 18.3-51.4 50.9-52.9 39.9-1.9 64.7-4 76.3-5.1 19.2 10 39.7 16.7 60.6 6.5 3.8 15.2 10 45.6 4.2 66.2-63.6 14.5-128.4.4-192-14.7" class="color304c6a svgShape"></path><defs><path id="I" d="M4861.3 3360.7s16.9 36.6 12.4 39.7c21.6-.6 42.8-4.8 56.1-24-4.1-4.3-18.7-36.1-18.7-36.1l-49.8 20.4z"></path></defs><clipPath id="J"><use overflow="visible" xlink:href="#I"></use></clipPath><linearGradient id="K" x1="1790.05" x2="1794.16" y1="2694.24" y2="2694.24" gradientTransform="rotate(157.794 19332.837 19542.976) scale(14.8366)" gradientUnits="userSpaceOnUse"><stop offset="0" stop-color="#ffc7d0" class="stopColorffc7d0 svgShape"></stop><stop offset="1" stop-color="#e65e75" class="stopColore65e75 svgShape"></stop></linearGradient><path fill="url(#K)" d="m4920 3316.4-79.7 32.6 30.8 75.4 79.7-32.6z" clip-path="url(#J)"></path><path fill="#e65e75" d="M4965.7 3432.2c3.3 14-.2 26.8-18.3 33.7-35.4 13.6-118.7 58-146.3 52.4-4-.8-7.3-2.6-10-5.1 62.8-17.8 126.2-37.2 174.6-81" class="colore65e75 svgShape"></path><path fill="#304c6a" d="M4791 3513.2c-15.9-14.5-9.1-53.8 18.5-71 33.9-21.2 54.5-35.1 64.1-41.7 21.6-.6 42.8-4.8 56.1-24 10.8 11.4 31 34.9 36 55.7-48.4 43.8-111.8 63.2-174.7 81" class="color304c6a svgShape"></path><path fill="#ffffff" d="M4925.9 3411.9s16.8 17.9 14.1 25.4l-13.4 9.7-13.6-25.6 12.9-9.5zM4817.8 3447.3c-1.2-5.6-3.8-10.9-7.3-15.3 7.2-4.7 17.4 3.4 24.5 6.1-1.1-5.8-5-10.3-8.9-14.4 2.7-6.2 20.4 4.6 25.7 6.9-.9-6.2-6.4-10.7-12.1-13.4 7.3.1 14.6 1.3 21.6 3.4-2.9-8-15.7-8.3-21.8-13.8-2.2 2.2 6.2 5.8 7.7 7.9-4.2 1.6-9.5-3.6-13.1-.9 1.2 3.1 3 5.9 5.3 8.3-8.3-6.8-26.1-12.1-15.3 4.8-6.2-.9-23-6.5-15.9 5.6.6.9-10.4.3-10.8.5-5.3 2.7 17.9 10 20.4 14.3" class="colorfff svgShape"></path><defs><path id="L" d="M4616.6 1909.5c-33.8 24.3-27.8 38.3 20.9 111.4 42.1 63.2-74 108.7-98.7 234.6 1.1 4.1 2.2 8.2 3.6 12.2 53.4 135.6 176.7 316.4 332.9 230.1 68.2-36.5 46.9-104.7 12.3-175.6-68.6-56.9-137.3-93.2-103.5-152.7 60.1-105.7-62.2-126.3-54.5-194.3 5.7-50.1-40-75.2-78-75.2-13.5 0-26.1 3.2-35 9.5"></path></defs><clipPath id="M"><use overflow="visible" xlink:href="#L"></use></clipPath><linearGradient id="N" x1="1831.841" x2="1835.951" y1="2784.985" y2="2784.985" gradientTransform="scale(207.4719 -207.4719) rotate(-70.008 -1067.953 2679.763)" gradientUnits="userSpaceOnUse"><stop offset="0" stop-color="#333333" class="stopColor333 svgShape"></stop><stop offset=".031" stop-color="#333537" class="stopColor333537 svgShape"></stop><stop offset=".225" stop-color="#323f4e" class="stopColor323f4e svgShape"></stop><stop offset=".436" stop-color="#31465e" class="stopColor31465e svgShape"></stop><stop offset=".675" stop-color="#304b67" class="stopColor304b67 svgShape"></stop><stop offset="1" stop-color="#304c6a" class="stopColor304c6a svgShape"></stop></linearGradient><path fill="url(#N)" d="m4896.1 1770 267.1 734.1-577.1 210-267.1-734.2z" clip-path="url(#M)"></path><path fill="#152b3f" d="M4998.8 2512c-5.1-89.3-58.1-145.8-111.2-189.9 34.6 70.9 55.8 139.1-12.3 175.6-156.2 86.3-279.5-94.5-332.9-230.1-1.3-4-2.5-8-3.5-12.2-3.9 19.8-5.5 41.5-3.9 65.7 11.8 177.6 150.8 86.2 97.4 196.7-53.6 110.7 378 198.8 366.4-5.8" class="color152b3f svgShape"></path><defs><path id="O" d="M4406.1 2358.8c-11.7 2.6-8.7 8.2-7.8 18 4 42.5 49.1 36.3 50.2 13.3 9 .1 13.5 0 22.5-.7l-7.8-24.8c-3.3-.2-8.8-.8-18.8-3.8-7.6-3.3-14.2-4.4-20.4-4.4-6.3-.1-12.1 1.1-17.9 2.4"></path></defs><clipPath id="P"><use overflow="visible" xlink:href="#O"></use></clipPath><linearGradient id="Q" x1="1858.194" x2="1862.303" y1="2810.301" y2="2810.301" gradientTransform="rotate(-26.405 -80399.604 84858.923) scale(17.3352)" gradientUnits="userSpaceOnUse"><stop offset="0" stop-color="#ffc7d0" class="stopColorffc7d0 svgShape"></stop><stop offset="1" stop-color="#e65e75" class="stopColore65e75 svgShape"></stop></linearGradient><path fill="url(#Q)" d="m4409.6 2449.8 86.5-43-40.2-81-86.6 42.9z" clip-path="url(#P)"></path><path fill="#e06384" d="M4567 2366.3c-41 7.4-81.9-8.6-122.9-2.6 2.7 4.2 6.8 8 12.2 10.8 18.5 9.7 108 69.5 184.7-19.8 41.5-48.3 66.3-97.1 75-139-55.8 46.4-74 126.9-149 150.6" class="colore06384 svgShape"></path><path fill="#f995ab" d="M4703.1 2128.8c-43.3-56.2-50.1-33.7-61.1-19.1-11 14.6 3.5 149.1-57.7 215.7-37.5 40.7-121.6.5-135.5 9.4-9.9 6.3-11.2 18.7-4.7 28.8 41-6.1 81.9 10 122.9 2.6 75-23.7 93.1-104.2 149-150.6 7.5-35.5 3.1-66.1-12.9-86.8" class="colorf995ab svgShape"></path><path fill="#0c0306" d="M4448.3 2328.4s-26.6 35.9 9.6 56.4c4-5.9-20.1-35.7 0-51.2 4.1-5.6-9.6-5.2-9.6-5.2" class="color0c0306 svgShape"></path><path fill="#631b2e" d="M4538.3 2900.5c-4.1 8.2-8.2 32.9-28.8 32.9 41 126.8 21.1 260.4 20.2 391.6 13.9-99.9 28.8-250.6 7.5-332.4 0-102.7 318.3-116.3 172.9-455-105.6 79.8-142.6 226.5-171.8 362.9" class="color631b2e svgShape"></path><path fill="#8e3347" d="M4509.5 2933.4c20.5 0 24.7-24.7 28.8-32.9 29.2-136.5 66.3-283.1 171.8-363-4.7-10.9-9.8-22.1-15.4-33.6-87.3-60.7-77-192.8-156.9-30.8-37 74.9-113.6 284.1-123.5 474.4-11.5 221.2 46.9 423.5 44.3 463.1 34 36.8 55.2 13.7 55.2 13.7s7.7-41.1 15.8-99.4c1-131.1 20.9-264.7-20.1-391.5" class="color8e3347 svgShape"></path><g opacity=".11"><defs><path id="R" d="M4242.4 2226.6h678.1v1376.8h-678.1z"></path></defs><clipPath id="S"><use overflow="visible" xlink:href="#R"></use></clipPath><g clip-path="url(#S)"><defs><path id="T" d="M4242.4 2226.6h678.1v1376.8h-678.1z"></path></defs><clipPath id="U"><use overflow="visible" xlink:href="#T"></use></clipPath></g></g><path fill="#5b1b2c" d="M4661.6 3040.3c63 26.1 109.9 72.8 152.9 124.4-31.6-47-68.6-95.2-108.3-134.1 136.1-235.1 214.9-422.6 83.3-553-6-5.3-11.7-10.1-17.1-14.5 108.7 180.3 7 426.9-110.8 577.2" class="color5b1b2c svgShape"></path><path fill="#8e3347" d="M4661.6 3040.3c117.8-150.3 219.5-396.9 110.7-577.2-84.2-68-107.3-30.8-128.2 16.3 0 0-89.3 268.9-70.7 511.4 16.3 213.1 263.6 355.4 287.9 379.6 50.1-1.3 59.7-19.3 59.7-19.3s-42.4-91-106.6-186.5c-42.9-51.5-89.8-98.3-152.8-124.3" class="color8e3347 svgShape"></path><g opacity=".35"><defs><path id="V" d="M4415 2271.8h678.1v1269.9H4415z"></path></defs><clipPath id="W"><use overflow="visible" xlink:href="#V"></use></clipPath><g clip-path="url(#W)"><defs><path id="X" d="M4415 2271.8h678.1v1269.9H4415z"></path></defs><clipPath id="Y"><use overflow="visible" xlink:href="#X"></use></clipPath></g></g><path fill="#ba5067" d="M4575.3 2497.8c-38.5-77.1 13.2-157.7 16.5-238.6-32.5 105.7-71.3 236.5-46.9 252.1 20.9 13.3 44.5 28.6 76.2 39.7-19.3-14.5-35.3-32.2-45.8-53.2" class="colorba5067 svgShape"></path><path fill="#e65e75" d="M4694.4 2304.6c-19.4-81.7 8.9-156 36.4-229.9-.6-.2-1.1-.4-1.7-.5-25.1-6.6-50.2.3-55.1 4.2-4.9 3.9-28.8 6.2-54.9 89.8-6.8 24.3-16.8 56.3-27.4 90.9-3.2 80.9-55 161.6-16.5 238.6 10.5 21 26.5 38.8 45.8 53.2 17.6 6.2 37.7 11.1 61.3 13.6 66 7.1 162-20.8 114.1-105.1-18.9-33.3-26.8-69-29-104.8-34.3-1.5-63.8-11.1-73-50" class="colore65e75 svgShape"></path><path fill="#b54860" d="M4730.9 2074.8c-27.5 73.9-55.9 148.2-36.4 229.9 9.1 38.9 38.7 48.5 73 50.1-7.7-125.5 55.4-251.8-36.6-280" class="colorb54860 svgShape"></path><g opacity=".19"><defs><path id="Z" d="M4394.4 1930.7h554.8v785h-554.8z"></path></defs><clipPath id="aa"><use overflow="visible" xlink:href="#Z"></use></clipPath><g clip-path="url(#aa)"><defs><path id="ab" d="M4394.4 1930.7h554.8v785h-554.8z"></path></defs><clipPath id="ac"><use overflow="visible" xlink:href="#ab"></use></clipPath></g></g><path fill="#ffa730" d="M4662.5 2114.3c-1.8-1.8-10.5-9.5-7.4-28.2 3.1-18.7 9.7-18 11-18.1 1.3-.2 8.3 32.6 4.4 40.1-3.9 7.4-6.2 7.9-8 6.2" class="colorffa730 svgShape"></path><defs><path id="ad" d="M4651.4 2020.2s21 68.1 19.1 87.8c32.4 5.5 48.7-10.2 48.5-17.4-26.9-55.2-35.2-80.5-35.1-90.2 0-2.1-1.3-3-3.5-3-8.2 0-27.8 12.4-29 22.8"></path></defs><clipPath id="ae"><use overflow="visible" xlink:href="#ad"></use></clipPath><linearGradient id="af" x1="1818.908" x2="1823.018" y1="2753.185" y2="2753.185" gradientTransform="scale(-29.567 29.567) rotate(-69.072 -1117.987 2850.213)" gradientUnits="userSpaceOnUse"><stop offset="0" stop-color="#ffc7d0" class="stopColorffc7d0 svgShape"></stop><stop offset="1" stop-color="#e65e75" class="stopColore65e75 svgShape"></stop></linearGradient><path fill="url(#af)" d="m4660.1 2136.1-47.4-123.9 97.9-37.4 47.4 123.9z" clip-path="url(#ae)"></path><defs><path id="ag" d="M4629.1 1934.8s-44 89.6-7.8 118.7c34.4 13 83.2-35.9 89.4-72.6-29.3-39.4-56.2-49.8-70.7-49.8-5.7.1-9.6 1.7-10.9 3.7"></path></defs><clipPath id="ah"><use overflow="visible" xlink:href="#ag"></use></clipPath><linearGradient id="ai" x1="1821.377" x2="1825.486" y1="2808.989" y2="2808.989" gradientTransform="scale(-28.7177 28.7177) rotate(77.308 2542.83 198.768)" gradientUnits="userSpaceOnUse"><stop offset="0" stop-color="#ffc7d0" class="stopColorffc7d0 svgShape"></stop><stop offset="1" stop-color="#e65e75" class="stopColore65e75 svgShape"></stop></linearGradient><path fill="url(#ai)" d="m4739.8 1937.7-35.1 155.8-148.6-33.5 35.1-155.8z" clip-path="url(#ah)"></path><defs><path id="aj" d="M4390.1 2373.1c-9.8 6.5-15.1 23.4-11.7 30 13.3 19.6 67.9 12.9 88.7 12.8 10 1.1-2.4-13.9 0-21-14.8-4.6-22.9-6.7-32.1-17.1-5.5-6.2-16-8.5-25.7-8.5-8.3 0-15.9 1.6-19.2 3.8"></path></defs><clipPath id="ak"><use overflow="visible" xlink:href="#aj"></use></clipPath><linearGradient id="al" x1="1837.978" x2="1842.088" y1="2785.023" y2="2785.023" gradientTransform="scale(79.8863 -79.8863) rotate(-45.85 -2380.677 3486.495)" gradientUnits="userSpaceOnUse"><stop offset="0" stop-color="#ffc7d0" class="stopColorffc7d0 svgShape"></stop><stop offset="1" stop-color="#e65e75" class="stopColore65e75 svgShape"></stop></linearGradient><path fill="url(#al)" d="m4427.5 2318.2 76.3 78.6-79.3 77-76.3-78.6z" clip-path="url(#ak)"></path><path fill="#e06384" d="M4452.6 2404.1c2.5 6.6 7.4 12.3 12 14.2 9.2 3.9 165.3 3.8 232.6-55.5 67.2-59.3 85.2-122.7 91.4-147.8 3.3-13.1 5.9-34.1 5-55-41.7 162.5-179.7 272.9-341 244.1" class="colore06384 svgShape"></path><path fill="#f995ab" d="M4765.8 2095.8c-22.1-10.9-41.1 8.7-42.4 23.1-1.3 15.6-31.3 179.2-93.4 229.1-38 30.5-165.1 24.8-175.1 36.1-5 5.7-4.8 13.3-2.3 19.9 161.4 28.8 299.3-81.6 341-244.2-1.2-27.2-8.3-54.4-27.8-64" class="colorf995ab svgShape"></path><path fill="#ffa730" d="M4688.3 2124.3s-9.1-22.2-1.9-36.8c7.2-14.6 22-28.8 26.3-24.4 4.3 4.4 14.1 13.4 11.6 24.4-2.6 10.9-34.9 46.5-36 36.8" class="colorffa730 svgShape"></path><path fill="#231f20" d="M4461.3 2372.9s-21.9 5.7-8.7 37.2c13.3 31.5 17.6 16.5 18.4 14.8.9-1.6-10-21.1-10-29.4 0-8.3 8.8-14.2 8.2-18.9-.4-4.8-3-5.3-7.9-3.7" class="color231f20 svgShape"></path><defs><path id="am" d="M4627.5 1925.3s24.3 40.9 12.5 60.1c-11.8 19.1 56.6 60.1 77 39.5s.5-85.1-19-94.2c-10.7-5-30.9-6.1-46.9-6.1-13.2-.1-23.6.7-23.6.7"></path></defs><clipPath id="an"><use overflow="visible" xlink:href="#am"></use></clipPath><linearGradient id="ao" x1="1832.119" x2="1836.229" y1="2783.81" y2="2783.81" gradientTransform="scale(280.4802 -280.4802) rotate(-59.785 -1502.923 2967.619)" gradientUnits="userSpaceOnUse"><stop offset="0" stop-color="#333333" class="stopColor333 svgShape"></stop><stop offset=".278" stop-color="#333537" class="stopColor333537 svgShape"></stop><stop offset=".541" stop-color="#323a42" class="stopColor323a42 svgShape"></stop><stop offset=".798" stop-color="#314355" class="stopColor314355 svgShape"></stop><stop offset="1" stop-color="#304c6a" class="stopColor304c6a svgShape"></stop></linearGradient><path fill="url(#ao)" d="m4709.6 1876.7 80.4 138.1-134.6 78.4-80.4-138.1z" clip-path="url(#an)"></path><path fill="#2956b2" d="M4013.8 3099.2s216.8 217.5-16.9 236.6c-233.6 19-475.3 30-491.5 9.5-16.1-20.5-2.9-37.4 41.8-35.9 44.7 1.5 451-6.1 485.5-40.4s8.1-95.1-54.9-144.9c-62.9-49.8 10.5-53.3 36-24.9" class="color2956b2 svgShape"></path><path fill="#ffa730" d="m3789.2 2450.9 273.6-268.7c50.2 48.8 87 93.2 110.2 133.1 28.4 49.8 44.8 104.9 49.4 165.4 4.6 63.9-5.2 126.6-29.3 188-24.2 61.4-59.5 114.9-106 160.5-93.6 91.9-205.6 137.2-336.3 136-130.7-1.2-241.9-48.5-333.8-142.1-94.1-95.9-140.4-209.3-139-340.2 1.5-130.9 50.1-243.5 146-337.6 112.7-110.7 251.9-154.3 417.5-130.9l-4.4 101.9c-139.7-24.8-255.4 7.8-347.2 97.9-75.5 74.2-112.9 163.3-112.1 267.5.8 104.3 38.6 194.4 113.3 270.5 70.7 72 158.5 109.4 263.2 112.1 104.8 2.7 192.9-31.1 264.3-101.2 61-59.9 95.9-131.3 104.7-214.1 10.6-88-13.5-161.9-72.3-221.7l-195 191.6-66.8-68z" class="colorffa730 svgShape"></path><path fill="#3784d1" d="M3303.3 2737.5c-44.3 22.8 64.8 260.4 73.8 319.7 2.4 46.7 36 68.4 81.8 64.4 50.4-1.7 149.9-1.9 198.9-3.3 121.9-2 256.2-4.2 378.1-6.2 63.3 8.1 80.4-25.9 85.4-80.3 9-34.1 124.6-519.5 128.7-534.7l28.9-61h148c35.2 0 7.9-28.9 7.9-28.9-189.1 3.3-148.8-57.5-233.7 102.4l-42.5 10.8c-281.3 72.2-811 194.2-855.3 217.1m657.1 305.9c13.8-138.6 27-277.2 38.4-415.8 47.9-12.1 95.5-23.7 142.8-37.3-30.6 148.8-30.8 302.5-81.2 447.2-33.3 2.7-66.7 4.6-100 5.9m-102.7 2.7c2.3-126.4-.2-252.3-.5-378.9 28.4-8.3 56.9-17.3 85.6-24.9-5.5 134.3-15.2 268.5-31.1 402.7-18 .5-36 .8-54 1.1m-154.2 1c-5.5-110.4-7.1-220.8-13.2-331.2 39.1-11.2 78.2-22.6 117.4-34.1-13 122.6-13.1 244-13.8 364.9-30.2.2-60.3.3-90.4.4m-112.7.9c-13.2-97.5-26-194.9-45.9-291.1 37.5-10.4 75.1-20.9 112.6-31.7-.2 107.1-2.3 214.8-1.1 322.1-21.8.2-43.7.4-65.6.7m-207.2-247.4c41.6-10.9 83.1-22.2 124.5-33.6 20.9 95.5 44 188.4 60.9 281.5-42.4.8-84.8 2.1-127.4 4.5-22.2-81.4-42.9-165.3-58-252.4" class="color3784d1 svgShape"></path><path fill="#4778b9" d="M3887.4 3352.1c0 53.4 43.3 96.7 96.7 96.7 53.4 0 96.7-43.3 96.7-96.7 0-53.4-31.6-108.2-85-108.2s-108.4 54.8-108.4 108.2" class="color4778b9 svgShape"></path><path fill="#ffffff" d="M3905 3352.1c0 41.3 42.2 74.7 83.5 74.7s74.7-33.4 74.7-74.7c0-41.3-29.3-85-70.6-85-41.2 0-87.6 43.8-87.6 85" class="colorfff svgShape"></path><path fill="#4778b9" d="M3419.1 3352.1c0 53.4 43.3 96.7 96.7 96.7 53.4 0 105.7-48 100.6-114-4.1-53.2-47.2-79.3-100.6-79.3-53.4-.1-96.7 43.2-96.7 96.6" class="color4778b9 svgShape"></path><path fill="#ffffff" d="M3448.7 3352.1c0 41.3 25.9 74.7 67.1 74.7 41.3 0 63.7-33.4 63.7-74.7 0-41.3-22.5-74.7-63.7-74.7-41.3 0-67.1 33.5-67.1 74.7" class="colorfff svgShape"></path><path fill="#3784d1" d="M4132.9 2816.7s-752 98.8-755.9 71.5c-3.9-27.3 12.4-16.6 12.4-16.6s730.7-85.8 743.4-75.1c12.8 10.6.1 20.2.1 20.2" class="color3784d1 svgShape"></path><path fill="#4676b7" d="M2533.2 3406.7c0 82.1-329.4 104.7-427 114.9-97.5 10.2-573.3-5.7-573.4-60.3-.1-54.6 1000.4-136.7 1000.4-54.6" class="color4676b7 svgShape"></path><defs><path id="ap" d="M2028.8 3355.2s-1.6 34.9-3.7 40.4c19.6 12.7 40.7 8.6 61 1-5.3-1.2-3.5-41.4-3.5-41.4h-53.8z"></path></defs><clipPath id="aq"><use overflow="visible" xlink:href="#ap"></use></clipPath><linearGradient id="ar" x1="1753.934" x2="1758.044" y1="2714.928" y2="2714.928" gradientTransform="matrix(14.8365 0 0 -14.8365 -23997.242 43661.992)" gradientUnits="userSpaceOnUse"><stop offset="0" stop-color="#ffc7d0" class="stopColorffc7d0 svgShape"></stop><stop offset="1" stop-color="#e65e75" class="stopColore65e75 svgShape"></stop></linearGradient><path fill="url(#ar)" d="M2025.1 3355.2h61v53.2h-61z" clip-path="url(#aq)"></path><path fill="#aecff1" d="M2012.9 3460.9c2.2 14.2 10.3 24.7 29.7 24.3 37.9-.8 131.8 8.8 155.3-6.8 3.4-2.3 5.8-5.2 7.4-8.5-65 7.2-131.1 13.3-192.4-9" class="coloraecff1 svgShape"></path><path fill="#102538" d="M2205.2 3469.9c9.2-19.5-11.9-53.2-44-58.8-39.4-6.8-63.7-11.9-75.1-14.4-20.3 7.6-41.4 11.7-61-1-5.7 14.6-15.5 44-12.2 65.2 61.4 22.3 127.4 16.2 192.3 9" class="color102538 svgShape"></path><path fill="#ffffff" d="M2042 3427.1s-8.8 23-3.4 28.8l16.1 3.9 2.9-28.8-15.6-3.9z" class="colorfff svgShape"></path><defs><path id="as" d="M1975.5 3357.9s-1.6 34.9-3.7 40.5c19.6 12.7 40.7 8.6 61 1-5.3-1.2-3.5-41.4-3.5-41.4h-53.8z"></path></defs><clipPath id="at"><use overflow="visible" xlink:href="#as"></use></clipPath><linearGradient id="au" x1="1751.214" x2="1755.324" y1="2714.794" y2="2714.794" gradientTransform="matrix(14.8365 0 0 -14.8365 -24010.22 43662.633)" gradientUnits="userSpaceOnUse"><stop offset="0" stop-color="#ffc7d0" class="stopColorffc7d0 svgShape"></stop><stop offset="1" stop-color="#e65e75" class="stopColore65e75 svgShape"></stop></linearGradient><path fill="url(#au)" d="M1971.8 3357.9h61v53.2h-61z" clip-path="url(#at)"></path><path fill="#aecff1" d="M1959.5 3463.5c2.2 14.2 10.3 24.7 29.7 24.3 37.9-.8 131.8 8.8 155.3-6.8 3.4-2.3 5.8-5.2 7.4-8.5-64.9 7.3-131 13.3-192.4-9" class="coloraecff1 svgShape"></path><path fill="#304c6a" d="M2151.9 3472.5c9.2-19.5-11.9-53.2-44-58.8-39.4-6.8-63.7-11.9-75.1-14.4-20.3 7.6-41.4 11.7-61-1-5.7 14.6-15.5 44-12.2 65.2 61.3 22.3 127.4 16.3 192.3 9" class="color304c6a svgShape"></path><path fill="#ffffff" d="M1988.7 3429.7s-8.8 22.9-3.4 28.8l16.1 3.9 2.9-28.8-15.6-3.9z" class="colorfff svgShape"></path><defs><path id="av" d="M2395.4 2017c-32.7 21.7-44.7 67.6-70.4 90.4-10.4 9.2-2.8 36.9 12 33.1 16.4-8.7 22.1-30.8 41.3-24.2 20.7 7.1 54.9-31.8 38.6-47.8-3.8-7.2-19.6-13.3-16.8-21.7 5.5-9.2 21.8-30.8 19.5-41.8-1-.3-2-.4-3-.4-7.6-.1-15 8.3-21.2 12.4"></path></defs><clipPath id="aw"><use overflow="visible" xlink:href="#av"></use></clipPath><linearGradient id="ax" x1="1838.969" x2="1843.079" y1="2773.907" y2="2773.907" gradientTransform="scale(-72.6507 72.6507) rotate(35.146 5238.74 -1557.595)" gradientUnits="userSpaceOnUse"><stop offset="0" stop-color="#ffc7d0" class="stopColorffc7d0 svgShape"></stop><stop offset="1" stop-color="#e65e75" class="stopColore65e75 svgShape"></stop></linearGradient><path fill="url(#ax)" d="m2499 2098-145.1 102.1-105.1-149.3 145.1-102.1z" clip-path="url(#aw)"></path><path fill="#f2f2f2" d="M4533.3 1199.1c-42 9.8-638.1 31.9-684 3.8-45.9-28.1-33.4-182.3 40-197.5 73.3-15.2 628.8-31.2 656.8-10.6 27.9 20.6 29.2 194.6-12.8 204.3M4533.3 1799.9c-42 9.8-638.1 31.9-684 3.8-45.9-28.1-33.4-182.3 40-197.5 73.3-15.2 628.8-31.2 656.8-10.6 27.9 20.6 29.2 194.5-12.8 204.3M4533.3 1501.6c-42 9.8-638.1 31.9-684 3.8-45.9-28.1-33.4-182.3 40-197.5 73.3-15.2 628.8-31.2 656.8-10.6 27.9 20.6 29.2 194.5-12.8 204.3" class="colorf2f2f2 svgShape"></path><path fill="#80dcdb" d="M4191.8 1366.3c1.1-1.8 2.2-3.7 3.9-5.1 1.7-1.3 4.1-2 6-1.1 1.1.5 2 1.5 2.8 2.4 10.7 12.2 33.1 31.1 29.6 38.4-3.5 7.3-22.1-.7-33.2-1.1-6.5-.2-26.3 2.1-30.3-2.6 6.1-10.7 14.7-20.3 21.2-30.9" class="color80dcdb svgShape"></path><path fill="#a3e7e6" d="M4219.6 1377.6c74.5-30.9 67.1 29.1 27.8 29.8-39.3.7-27.8-25.3-27.8-29.8" class="colora3e7e6 svgShape"></path><path fill="#2fa09f" d="M4198.5 1437.8c.8 2.7 1.4 6.1-.8 8 35.1-2.3 64.8 15 50.3-34-18.2 7.8-65.1-9.3-49.5 26" class="color2fa09f svgShape"></path><path fill="#80dcdb" d="M4191.8 1664.5c1.1-1.8 2.2-3.7 3.9-5.1 1.7-1.3 4.1-2 6-1.1 1.1.5 2 1.5 2.8 2.4 10.7 12.2 33.1 31.1 29.6 38.4-3.5 7.3-22.1-.7-33.2-1.1-6.5-.2-26.3 2.1-30.3-2.6 6.1-10.6 14.7-20.2 21.2-30.9" class="color80dcdb svgShape"></path><path fill="#a3e7e6" d="M4219.7 1675.9c74.5-30.9 67.1 29.1 27.8 29.8-39.4.7-27.9-25.3-27.8-29.8" class="colora3e7e6 svgShape"></path><path fill="#2fa09f" d="M4198.5 1736.1c.8 2.7 1.4 6.1-.8 8 35.1-2.3 64.8 15 50.3-34-18.2 7.8-65.1-9.3-49.5 26" class="color2fa09f svgShape"></path><path fill="#ffc261" d="m3179.5 1804 21.8-11.4-26.1-1.3-5.6-16-10.2 15.3-24.7-1.2 16.6 13.3-16.6 24.8 28.8-15 26.2 21zM3277.4 1804l21.8-11.4-26.1-1.3-5.6-16-10.2 15.3-24.7-1.2 16.6 13.3-16.6 24.8 28.8-15 26.2 21zM3375.3 1804l21.8-11.4-26.1-1.3-5.6-16-10.2 15.3-24.7-1.2 16.6 13.3-16.6 24.8 28.8-15 26.2 21zM3473.2 1804l21.8-11.4-26.1-1.3-5.6-16-10.2 15.3-24.7-1.2 16.6 13.3-16.6 24.8 28.8-15 26.2 21zM3571.1 1804l21.8-11.4-26.1-1.3-5.6-16-10.2 15.3-24.7-1.2 16.6 13.3-16.6 24.8 28.8-15 26.2 21z" class="colorffc261 svgShape"></path><path fill="#ffffff" d="M4392.9 3465.2c1.4-5.5 1.6-11.4.4-17 8.6-.9 14 10.9 19.1 16.5 1.7-5.7.1-11.4-1.5-16.9 5.2-4.3 16.2 13.3 19.8 17.8 2-5.9-.9-12.4-4.7-17.4 6.5 3.4 12.5 7.7 17.7 12.8 1-8.4-10.2-14.5-13.2-22.2-3 .9 2.9 7.9 3.3 10.5-4.5-.5-6.8-7.5-11.3-6.7-.3 3.3 0 6.6 1 9.8-4.4-9.8-17.8-22.5-15.8-2.6-5.1-3.7-17.6-16.2-16.8-2.2.1 1.1-9.4-4.4-9.9-4.4-5.8.1 11.7 17.1 11.9 22" class="colorfff svgShape"></path><defs><path id="ay" d="M2419.8 1684.6c2.1 10.4 1.7 14.7 20 12.7 10.2-3 2-16.4 12.1-20.4 16.7-6.4 43.4-5.3 47.3-27.7 6.9-23.9-51.2-35.9-19.3-54.6 3.9-2.4 8-6.1 7.5-10.6h-.4c-39.3 0-63.8 68.6-67.2 100.6"></path></defs><clipPath id="az"><use overflow="visible" xlink:href="#ay"></use></clipPath><linearGradient id="aA" x1="1787.6" x2="1791.71" y1="2798.306" y2="2798.306" gradientTransform="matrix(19.4638 0 0 -19.4638 -32373.785 56107.453)" gradientUnits="userSpaceOnUse"><stop offset="0" stop-color="#ffc7d0" class="stopColorffc7d0 svgShape"></stop><stop offset="1" stop-color="#e65e75" class="stopColore65e75 svgShape"></stop></linearGradient><path fill="url(#aA)" d="M2419.8 1584h86.3v115.3h-86.3z" clip-path="url(#az)"></path><path fill="#fc8d15" d="M2182.3 1836.8c-1.8-1.4-3.7-2.3-5.6-3.1-62.5 18.5-19.4 148.1 36.2 151.1 63.6-1.1 112-31.7 148.1-72.8-60.9 5.2-123.1-34.2-178.7-75.2" class="colorfc8d15 svgShape"></path><path fill="#ffa42c" d="M2454.8 1692c-5-9.9-28.9-17.7-40-12.6-11.2 5.1-22.9 61.2-46.3 104.6-23.4 43.5-44 73.8-155.5 49.8-14.7-3.2-26.7-2.9-36.2-.1 1.9.7 3.8 1.7 5.6 3.1 55.6 41.1 117.9 80.4 178.7 75.2 74.4-84.6 97-213.4 93.7-220" class="colorffa42c svgShape"></path><path fill="#5555e5" d="M2196.2 2624.4c-17-115.4-27.3-230.8-24.6-346.2-54 9-131.4 44.4-198.1 33.5C1902.6 2394 2000 3389 2000 3389h62.7c8.6-48.8 20.5-96.5 32.4-144.2 59.3-205.6 129-404.3 101.1-620.4" class="color5555e5 svgShape"></path><path fill="#6359f5" d="M2236.5 2366.5c12.4-83.7-17.1-96.3-64.9-88.4-2.7 115.4 7.6 230.8 24.6 346.2 27.9 216.1-41.8 414.7-101.1 620.4-11.9 47.7-23.8 95.4-32.4 144.2h22.8s146.2-421.6 155.3-533.5c9.1-111.8-4.3-488.9-4.3-488.9" class="color6359f5 svgShape"></path><g opacity=".1"><defs><path id="aB" d="M1798.7 2127.9h595.9v1409.6h-595.9z"></path></defs><clipPath id="aC"><use overflow="visible" xlink:href="#aB"></use></clipPath><g clip-path="url(#aC)"><defs><path id="aD" d="M1798.7 2127.9h595.9v1409.6h-595.9z"></path></defs><clipPath id="aE"><use overflow="visible" xlink:href="#aD"></use></clipPath></g></g><path fill="#4040ad" d="M1973.2 2913.7c10.5-34.9 7-73.2-7-97.6-63-159.1-100.7-346.5-17.4-499.4-16.5 1.6-32.6 1.6-47.9-.9-97.7 183.4 58.5 327.9 8.4 590-35.6 185.9-3.8 345.2 19.3 426.2-3.4-140.3-2.3-280 44.6-418.3" class="color4040ad svgShape"></path><path fill="#6359f5" d="M1948.8 2316.7c-83.4 152.9-45.6 340.3 17.4 499.4 13.9 24.4 17.4 62.7 7 97.6-46.8 138.3-48 278-44.6 418.3 10.4 36.4 19.1 57 19.1 57h85.6s110.9-355.6 125.1-548.6c14.2-193 4.2-473 4.2-473 23.1-156.6-94.3-62.2-213.8-50.7" class="color6359f5 svgShape"></path><g opacity=".15"><defs><path id="aF" d="M1716.5 2132h591.8v1405.5h-591.8z"></path></defs><clipPath id="aG"><use overflow="visible" xlink:href="#aF"></use></clipPath><g clip-path="url(#aG)"><defs><path id="aH" d="M1716.5 2132h591.8v1405.5h-591.8z"></path></defs><clipPath id="aI"><use overflow="visible" xlink:href="#aH"></use></clipPath></g></g><path fill="#fcc677" d="M2124.3 1806.9c-5.4.5-10.8 1.1-16.1 1.9 46.3 7.6 83.2 43.6 91.6 90.7 27.5 137.4 27.9 271.4 81.3 395.4 13.5-203.1-13-500.4-156.8-488" class="colorfcc677 svgShape"></path><path fill="#ffc261" d="M2108.2 1808.8c-56.3 7.8-106.7 30.4-145.4 68.6-16 60.9-32.3 122.1-14 185.9 37.7 127.3 77 257.8 74.8 388.2 43.7-1.6 78.5-34 95.1-36.2 22.9-3 121.7 161.4 151.7-22.9 4.5-28 8.3-61.3 10.7-97.6-53.4-124-53.8-258-81.3-395.4-8.4-47-45.3-83.1-91.6-90.6" class="colorffc261 svgShape"></path><path fill="#fcab49" d="M1948.8 2063.3c-18.2-63.9-2-125.1 14-185.9-72 71-103.5 195.6-56.8 377.3 2.9 64.4-67.9 186.3-32.8 194.3 35.1 8 28.7-55.4 96.8-12.5 18.8 11.9 36.9 15.8 53.6 15.2 2.2-130.6-37.1-261.1-74.8-388.4" class="colorfcab49 svgShape"></path><g opacity=".1"><defs><path id="aJ" d="M1694.4 1634.8h760.3v1015.1h-760.3z"></path></defs><clipPath id="aK"><use overflow="visible" xlink:href="#aJ"></use></clipPath><g clip-path="url(#aK)"><defs><path id="aL" d="M1694.4 1634.8h760.3v1015.1h-760.3z"></path></defs><clipPath id="aM"><use overflow="visible" xlink:href="#aL"></use></clipPath></g></g><path fill="#fc8d15" d="M1955.7 2112.1c-29.2-61.7-13-138.6 3.4-210.9-50.2 83.1-72.6 248 52.7 298 145.5 58.2 306.1-27.1 336.8-50.1-122.6 61.4-327.4 93.8-392.9-37" class="colorfc8d15 svgShape"></path><path fill="#ffa42c" d="M2353.8 2144.4c3.4-9.2 14.3-46.1-20.6-53.8-34.8-7.7-126.6 46.9-196.5 45.4-70-1.5-60.4-74.7-58.1-106 2.3-31.3 4.6-98.4 12.2-121.2 7.6-22.9-13.7-82.3-85.8-53.8-15.7 6.2-31.8 23-45.8 46.2-16.4 72.3-32.6 149.1-3.4 210.9 65.4 130.8 270.3 98.4 392.8 37.1 3.1-2.3 4.9-4 5.2-4.8" class="colorffa42c svgShape"></path><defs><path id="aN" d="M2084.1 1747.3s-2 49.2-8.8 61.4c-14 16.5-13.3 14.5-13.3 14.5s-7.9 14.5 29.1 26.2c37 11.6 57.2-2.6 52.5-21.6-3.9-26.7-2.7-83.1-2.7-83.1l-56.8 2.6z"></path></defs><clipPath id="aO"><use overflow="visible" xlink:href="#aN"></use></clipPath><linearGradient id="aP" x1="1834.499" x2="1838.608" y1="2822.202" y2="2822.202" gradientTransform="scale(26.6763 -26.6763) rotate(85.963 2508.2 434.115)" gradientUnits="userSpaceOnUse"><stop offset="0" stop-color="#ffc7d0" class="stopColorffc7d0 svgShape"></stop><stop offset="1" stop-color="#e65e75" class="stopColore65e75 svgShape"></stop></linearGradient><path fill="url(#aP)" d="m2045.9 1860.5 8.7-122.4 101.9 7.2-8.7 122.3z" clip-path="url(#aO)"></path><defs><path id="aQ" d="M2122.3 1658.5s-62 12-68.8 50.3c-6.8 38.3 33.4 53.7 62.9 62 53.6 16.9 53.1-17.3 47.3-70.8-4-36.9-22.2-42.6-33.1-42.6-4.8 0-8.3 1.1-8.3 1.1"></path></defs><clipPath id="aR"><use overflow="visible" xlink:href="#aQ"></use></clipPath><linearGradient id="aS" x1="1790.815" x2="1794.924" y1="2765.458" y2="2765.458" gradientTransform="scale(26.7398 -26.7398) rotate(-36.027 -3415.442 3985.773)" gradientUnits="userSpaceOnUse"><stop offset="0" stop-color="#ffc7d0" class="stopColorffc7d0 svgShape"></stop><stop offset="1" stop-color="#e65e75" class="stopColore65e75 svgShape"></stop></linearGradient><path fill="url(#aS)" d="m2089.3 1598.7 142.7 103.8-104.7 143.9-142.6-103.8z" clip-path="url(#aR)"></path><path fill="#1b2c49" d="M2113.8 1684.3s45-4.2 44.7-27.9c-.2-23.7-30.7-27.1-44.9-18.7-14.2 8.4-105.9 31.2-62.4 122.4 16 24.6 41.7 11.9 42.6-6.7 19-3.3 1.5-22.1-8-30.3 12.4.3 15.6-22.7 7.8-31 14.6.8 25.9-1 20.2-7.8M2172.1 1721.9s-26.9-3.8-31.1 16.8c-4.2 20.6-3.8 17.1-18.1 18.4-14.3 1.3-2.4 27.4 17 22.5 19.4-4.9 38.7-5.9 35.2-25.7-3.5-19.8 1.7-16.8 5.7-19.8 3.9-3.1-5-11.9-8.7-12.2" class="color1b2c49 svgShape"></path><path fill="#ff7116" d="M2052.7 1832.3s-1.7-21.7 8.6-20.5c10.2 1.2 22.3 36 60.2 35.6 5.6.2 9.6 6.1 8.4 10.1-1.2 4-66.2 9.3-77.2-25.2M2140.2 1853.6c-8.5-1.5-7.1-8.2-3.7-12.6 3.4-4.3 8-14.3 5.2-34.5 7.2-4 12.8-.4 12.8 5.2 4 14.5-5.8 43.4-14.3 41.9" class="colorff7116 svgShape"></path><path fill="#ffffff" d="M2142.8 1873.7c6.7 0 6.7-10.5 0-10.5-6.8 0-6.8 10.5 0 10.5M2151.9 1901.8c6.7 0 6.7-10.5 0-10.5-6.8.1-6.8 10.5 0 10.5M2155.6 1928.9c3.7 0 3.7-5.7 0-5.7-3.7-.1-3.7 5.7 0 5.7" class="colorfff svgShape"></path><path fill="#ff7116" d="M2266.6 2116.4c14.8-6.1 29.6-13 44.7-18.4 7-2.5 14.9-4.2 22.2-1.5 7.3 2.7 12.4 10.4 9.4 18.1-.6 1.6 1.9 2.2 2.5.7 2.4-6 .3-12.9-4.4-17.3-5.2-4.9-12.9-6-19.8-5.2-9.3 1.2-18.1 5.6-26.6 9.2-9.6 4-19.1 7.9-28.7 11.9-1.6.6-.9 3.1.7 2.5M2076.8 1943c-3.3 20.5-6.6 41.1-9.8 61.6-2.8 18-5.2 36.1-5.1 54.4.1 17.8 2.6 35.8 9.7 52.2 3 7 6.8 14 12.5 19.1 5.9 5.3 13.4 8.2 21 10.1 21 5.2 43.3 5.6 64.6 2.3 1.7-.3 1-2.8-.7-2.5-19.3 3-39.1 2.7-58.2-1.2-8.6-1.7-17.5-4.2-24.2-10-6.4-5.5-10.4-13.3-13.5-21-13-32.2-8.8-68.4-3.6-101.9 3.2-20.9 6.6-41.7 9.9-62.5.2-1.6-2.4-2.3-2.6-.6M2127.8 1861.4c-.1 5.4 2.2 10.1 3.6 15.2 1.6 5.7 1.7 11.7 2.5 17.5 1.7 11.8 3.6 23.6 5.8 35.3.9 4.5 1.3 10.9 3.7 14.9 1.8 2.9 6.5 2.8 9.6 2.9 3.7.1 7.6-.5 10.5-3 3.5-2.9 3.7-6.9 3.2-11.2-.2-1.7-2.8-1.7-2.6 0 .6 5.3-.7 9.9-6.5 11.2-2.4.6-4.9.4-7.4.1-3.1-.4-4.6-1.3-5.4-4.3-2.3-8.5-3.6-17.2-5.1-25.9-1.5-9.1-3.2-18.3-4.2-27.5-.4-3.9-.8-7.7-1.9-11.4-1.4-4.7-3.4-8.9-3.3-13.8.1-1.7-2.5-1.7-2.5 0" class="colorff7116 svgShape"></path><path fill="#ff7116" d="M2303.6 2100.5c7 6.2 10 15.4 11.1 24.4 1.4 12.4-.3 24.9-3.1 37-.4 1.6 2.1 2.3 2.5.7 2.9-12.7 4.7-25.9 3-38.9-1.2-9.3-4.5-18.7-11.7-25.1-1.2-1.1-3.1.8-1.8 1.9M2414.2 1692.9c2.8-.9 5.7-1.8 8.7-1.8 3 0 5.7 1.1 8.3 2.4 4.5 2.2 9.3 4.6 12.4 8.8 1 1.3 3.3 0 2.3-1.3-3.4-4.8-8.6-7.4-13.8-9.9-2.7-1.3-5.5-2.5-8.6-2.6-3.4-.1-6.7.9-9.9 1.9-1.7.4-1.1 3 .6 2.5M2401.6 1713c7 .6 14.1-.8 21.1.3 7.1 1.1 12.9 5.9 17.9 10.8 1.2 1.2 3-.7 1.8-1.8-5.1-5-11.1-10-18.4-11.4-7.4-1.4-15 .1-22.4-.5-1.7-.1-1.7 2.5 0 2.6" class="colorff7116 svgShape"></path><path fill="#224884" d="M1964.4 2470.6c7 88.5 20.8 176.3 41.5 262.6 5.9 24.4 12.3 48.7 19.2 72.9.5 1.6 3 .9 2.5-.7-24.4-85.1-42.3-172-53.1-259.8-3.1-24.9-5.6-49.9-7.5-75-.2-1.7-2.8-1.7-2.6 0" class="color224884 svgShape"></path><path fill="#224884" d="M2020.5 2458.2c1.2 25 2.5 50.4-2.5 75.1-2.3 11.4-6 22.5-11.4 32.7-5.3 9.9-13.1 22-25.6 22-1.7 0-1.7 2.6 0 2.6 10.1 0 17.6-7.1 23-15 7.1-10.4 11.8-22.4 15-34.6 7-27 5.6-55.3 4.3-82.9-.3-1.6-2.9-1.6-2.8.1M2026 2807c.1 86.2-22.8 170-33.6 255.1-3.1 24.3-5.1 48.7-5.4 73.2 0 1.7 2.6 1.7 2.6 0 .9-86.2 24.1-169.9 34.3-255.1 2.9-24.3 4.7-48.7 4.6-73.2.1-1.7-2.5-1.7-2.5 0" class="color224884 svgShape"></path><path fill="#f2f2f2" d="M1957.2 2463.1v11.2c0 1.7 2.6 1.7 2.6 0v-11.2c0-1.7-2.6-1.7-2.6 0M1959.1 2487.3v8.1c0 .7.6 1.3 1.3 1.3.7 0 1.3-.6 1.3-1.3v-8.1c0-.7-.6-1.3-1.3-1.3-.7 0-1.3.6-1.3 1.3M1960.9 2509.7c0 .8.1 1.6.4 2.3.3.9.7 1.6 1.3 2.3.2.2.6.4.9.4.3 0 .7-.1.9-.4.2-.3.4-.6.4-.9v-.3l-.3-.6.2.3c-.3-.4-.6-.8-.8-1.3l.1.3c-.2-.5-.3-1-.4-1.5v.3-.9c0-.7-.6-1.3-1.3-1.3-.8 0-1.4.5-1.4 1.3M1963.9 2530.6c.9 2.7 1.7 5.4 2.6 8 .2.6.9 1.1 1.6.9.7-.2 1.1-.9.9-1.6-.9-2.7-1.7-5.4-2.6-8-.2-.6-.9-1.1-1.6-.9-.6.2-1.1.9-.9 1.6M1965.9 2546.9c.4 2.9.9 5.8 1.3 8.7.1.7 1 1.1 1.6.9.7-.2 1-.9.9-1.6-.4-2.9-.9-5.8-1.3-8.7-.1-.7-1-1.1-1.6-.9-.7.2-1 .9-.9 1.6M1967.6 2562.5c-.1 2.7-.1 5.4.1 8.1 0 .7.6 1.3 1.3 1.3.7 0 1.3-.6 1.3-1.3-.1-2.7-.2-5.4-.1-8.1 0-.7-.6-1.3-1.3-1.3-.8 0-1.3.5-1.3 1.3M1969.8 2583c.4 3.1.9 6.2 1.7 9.3.2.7.9 1.1 1.6.9.7-.2 1.1-.9.9-1.6-.7-2.8-1.2-5.7-1.6-8.6-.1-.7-.5-1.3-1.3-1.3-.6 0-1.4.6-1.3 1.3M1970.8 2599.1c1.1 3.7 1.9 7.5 2.3 11.4.1.7.6 1.3 1.3 1.3.6 0 1.4-.6 1.3-1.3-.4-4.1-1.2-8.2-2.4-12.1-.5-1.6-3-.9-2.5.7M1976.7 2623.7c.4 2.4 1 4.7 1.7 7 .2.6.9 1.1 1.6.9.7-.2 1.1-.9.9-1.6-.7-2.3-1.3-4.7-1.7-7-.1-.7-1-1.1-1.6-.9-.7.2-1 .9-.9 1.6M1981.7 2644l1.2 4.5c.2.7.9 1.1 1.6.9.7-.2 1.1-.9.9-1.6-.4-1.5-.8-3-1.2-4.6-.2-.7-.9-1.1-1.6-.9-.7.3-1.1 1-.9 1.7M2159.9 2450.3c-4.2 30.9 4.4 61.8 1.4 92.7-.8 7.9-2 15.7-1.7 23.6.4 7.8 1.7 15.4 2 23.2.7 15.3-.9 30.6 1.3 45.8.2 1.7 2.7.9 2.5-.7-2.1-15.3-.3-30.7-1.2-46.1-.4-7.8-1.8-15.4-2-23.2-.3-7.6 1-15.1 1.7-22.7 3-30.7-5.6-61.3-1.5-92 .3-1.6-2.2-2.3-2.5-.6M2162.2 2642.3c-1.4 37.7-2.4 75.3-3 113 0 1.7 2.6 1.7 2.6 0 .6-37.7 1.7-75.4 3-113 0-1.7-2.6-1.7-2.6 0M2157.8 2761.2c-1.4 22.1-2.8 44.2-4.3 66.4-1.5 22.2-5.7 44.2-9.1 66.2-.3 1.6 2.3 2.4 2.5.7 3.3-21.5 7.5-43.1 9-64.9 1.6-22.8 3-45.6 4.4-68.4.2-1.7-2.4-1.7-2.5 0M2145.3 2904.9c-6.9 38.5-13.7 77.1-20.6 115.6-.3 1.6 2.2 2.4 2.5.7 6.9-38.5 13.7-77.1 20.6-115.6.3-1.6-2.2-2.3-2.5-.7M2121.8 3035.4c-7.8 31.3-15.6 62.7-23.4 94-.4 1.6 2.1 2.3 2.5.7 7.8-31.3 15.6-62.7 23.4-94 .4-1.7-2.1-2.4-2.5-.7M2095.6 3143.1c-7.4 29.9-14.9 59.7-22.4 89.5-.4 1.6 2.1 2.3 2.5.7 7.5-29.8 15-59.7 22.4-89.5.4-1.6-2.1-2.3-2.5-.7" class="colorf2f2f2 svgShape"></path><path fill="#4676b7" d="M3145 3382.4c0 82.1-294.3 104.7-381.4 114.9-87.1 10.2-512.1-5.7-512.2-60.3-.1-54.6 893.6-136.7 893.6-54.6" class="color4676b7 svgShape"></path><defs><path id="aT" d="M2348.4 3246.3c4.9 3.8 40.6 22.1 40.6 22.1l44.5-68.2-36.9-26.2-48.2 72.3z"></path></defs><clipPath id="aU"><use overflow="visible" xlink:href="#aT"></use></clipPath><linearGradient id="aV" x1="1781.964" x2="1786.074" y1="2758.77" y2="2758.77" gradientTransform="scale(23.271 -23.271) rotate(19.617 9322.284 -3552.273)" gradientUnits="userSpaceOnUse"><stop offset="0" stop-color="#ffc7d0" class="stopColorffc7d0 svgShape"></stop><stop offset="1" stop-color="#e65e75" class="stopColore65e75 svgShape"></stop></linearGradient><path fill="url(#aV)" d="m2318.5 3184.7 105.4-37.6 39.4 110.7-105.4 37.6z" clip-path="url(#aU)"></path><defs><path id="aW" d="M2786.7 3278.9s15.1-11.5 29.2-6.8c1.9.6 1.6-64.9 1.6-64.9l-41.1-8.5 10.3 80.2z"></path></defs><clipPath id="aX"><use overflow="visible" xlink:href="#aW"></use></clipPath><linearGradient id="aY" x1="1773.569" x2="1777.679" y1="2693.947" y2="2693.947" gradientTransform="matrix(10.0103 0 0 -10.0103 -14977.616 30205.996)" gradientUnits="userSpaceOnUse"><stop offset="0" stop-color="#ffc7d0" class="stopColorffc7d0 svgShape"></stop><stop offset="1" stop-color="#e65e75" class="stopColore65e75 svgShape"></stop></linearGradient><path fill="url(#aY)" d="M2776.4 3198.6h41.5v80.3h-41.5z" clip-path="url(#aX)"></path><path fill="#051123" d="M2820.8 2450.3c-75.8 3.9-205.6 49.4-201.2 77.5 1.2 7.6 18.5 269.3 73 481.8 4.4-10.5 8.6-21 12.7-30.9 73.4-169.9 77.8-350.5 115.5-528.4" class="color051123 svgShape"></path><path fill="#172c51" d="M2831.8 3220.5s-1.2-736.3-10-770.3c-.3 0-.6 0-.9.1-37.7 177.9-42.2 358.6-115.5 528.4-4.1 9.9-8.3 20.4-12.7 30.9 21.8 85.2 49.6 162.6 84.7 212.4l54.4-1.5z" class="color172c51 svgShape"></path><g opacity=".2"><defs><path id="aZ" d="M2471.1 2300.5h509.6v1072.6h-509.6z"></path></defs><clipPath id="ba"><use overflow="visible" xlink:href="#aZ"></use></clipPath><g clip-path="url(#ba)"><defs><path id="bb" d="M2471.1 2300.5h509.6v1072.6h-509.6z"></path></defs><clipPath id="bc"><use overflow="visible" xlink:href="#bb"></use></clipPath></g></g><path fill="#172c51" d="M2530.3 2501.5s21 284.1-44 439.5c-65 155.4-114.8 247.5-114.8 247.5s46.1 33.2 48.5 30c2.4-3.2 301.1-324.5 352.9-589.8 51.9-265.2 16.9-254 16.9-254s-273-.6-259.5 126.8" class="color172c51 svgShape"></path><g opacity=".2"><defs><path id="bd" d="M2220.4 2226.6h731.5v1142.5h-731.5z"></path></defs><clipPath id="be"><use overflow="visible" xlink:href="#bd"></use></clipPath><g clip-path="url(#be)"><defs><path id="bf" d="M2220.4 2226.6h731.5v1142.5h-731.5z"></path></defs><clipPath id="bg"><use overflow="visible" xlink:href="#bf"></use></clipPath></g></g><defs><path id="bh" d="M2953.2 1959.7c-6.1 16-58.7 310.3-166.4 76.9l-21.9-47.5s-88.9 70.7-76.4 94.9c0 0 181.8 382.7 267.6 54.6 17.9-79.3 7.8-149.1 11.8-153.3 16.7.9 33-12.1 40.4-25.1 7.3-12.7 6.1-25.3-11.5-25.1-28.8.4-.7-46.2-19-52.3-.2-.1-.3-.1-.5-.1-8.2 0-18.1 61.3-24.1 77"></path></defs><clipPath id="bi"><use overflow="visible" xlink:href="#bh"></use></clipPath><linearGradient id="bj" x1="1832.634" x2="1836.744" y1="2775.586" y2="2775.586" gradientTransform="scale(-80.917 80.917) rotate(65.826 3023.28 -43.447)" gradientUnits="userSpaceOnUse"><stop offset="0" stop-color="#ffc7d0" class="stopColorffc7d0 svgShape"></stop><stop offset="1" stop-color="#e65e75" class="stopColore65e75 svgShape"></stop></linearGradient><path fill="url(#bj)" d="m3233.8 1980.7-275.2 612.9-500.8-224.8 275.1-612.9z" clip-path="url(#bi)"></path><path fill="#633675" d="M2775.7 1975.7c-2.5-.8-4.9-1.6-7.2-2.3 29.7 34.3 33 88.4 58.8 121.7-8.4-62.8-23.6-110.3-51.6-119.4" class="color633675 svgShape"></path><path fill="#8d53a1" d="M2827.2 2095.1c-25.8-33.3-29-87.4-58.8-121.7-71.5-22.5-77.4-14.1-77.4-14.1s-39.4 7.6-78 41.7c-24.1 47.2-24.5 108.6-2.2 147.4 57.7 108.9 77.9 232.8 52.8 348.4 80 5.4 168.4-.2 173.1-47.5-2.6-79 5.3-241.4-9.5-354.2" class="color8d53a1 svgShape"></path><path fill="#643877" d="M2610.8 2148.5c-22.2-38.9-21.9-100.3 2.2-147.4-39.3 34.7-77.7 97-72.5 206.6 10.4 217.2-42.1 237.8-31.3 277 10.7 39.1 89 7.7 154.4 12.2 25.1-115.6 4.9-239.5-52.8-348.4" class="color643877 svgShape"></path><defs><path id="bk" d="M2892.5 1954.1c-.7-14-22.1-6.5-27.3 9.9-5.2 16.3-41.4 313-161.9 86-24.5-46.2-49.4-37.3-70-29-20.6 8.3-39.4 58.3-25.6 81.8 0 0 202.8 372 270.2 39.7 13.5-80.1 3.3-153.7 3.3-153.7s63.5-43.6 49.8-66.7c-24.1 20.6-37.2 26.2-38.5 32"></path></defs><clipPath id="bl"><use overflow="visible" xlink:href="#bk"></use></clipPath><linearGradient id="bm" x1="1832.852" x2="1836.961" y1="2774.574" y2="2774.574" gradientTransform="scale(-77.44 77.44) rotate(69.009 2897.277 40.52)" gradientUnits="userSpaceOnUse"><stop offset="0" stop-color="#ffc7d0" class="stopColorffc7d0 svgShape"></stop><stop offset="1" stop-color="#e65e75" class="stopColore65e75 svgShape"></stop></linearGradient><path fill="url(#bm)" d="m3129.6 1993-229.9 599.1-490.6-188.2 229.9-599.1z" clip-path="url(#bl)"></path><defs><path id="bn" d="m2715.6 1908.1-27.2 62.8c14.5 30.6 74.5 25 74.5 25s-1.1-27.2-16.7-84.5c-1.1-5.5-6.2-7.2-11.9-7.2-8.6.1-18.7 3.9-18.7 3.9"></path></defs><clipPath id="bo"><use overflow="visible" xlink:href="#bn"></use></clipPath><linearGradient id="bp" x1="1830.749" x2="1834.859" y1="2797.584" y2="2797.584" gradientTransform="scale(37.342 -37.342) rotate(86.114 2478.123 430.725)" gradientUnits="userSpaceOnUse"><stop offset="0" stop-color="#ffc7d0" class="stopColorffc7d0 svgShape"></stop><stop offset="1" stop-color="#e65e75" class="stopColore65e75 svgShape"></stop></linearGradient><path fill="url(#bp)" d="m2681.8 2001.1 6.9-101.8 80.8 5.5-6.9 101.8z" clip-path="url(#bo)"></path><defs><path id="bq" d="M2695.9 1870c-.7 17.8-1.1 39.3 37.1 43.7 84.1 10.4 37.4-96 37.4-96-12.7-9.4-23.3-13.3-32.2-13.3-32.7 0-41.7 51.6-42.3 65.6"></path></defs><clipPath id="br"><use overflow="visible" xlink:href="#bq"></use></clipPath><linearGradient id="bs" x1="1837.717" x2="1841.827" y1="2782.384" y2="2782.384" gradientTransform="scale(-74.9837 74.9837) rotate(-25.769 -5126.028 5504.751)" gradientUnits="userSpaceOnUse"><stop offset="0" stop-color="#ffc7d0" class="stopColorffc7d0 svgShape"></stop><stop offset="1" stop-color="#e65e75" class="stopColore65e75 svgShape"></stop></linearGradient><path fill="url(#bs)" d="m2794 1972-146.1-70.5 70-145 146 70.5z" clip-path="url(#br)"></path><path fill="#1b2c49" d="M2805.9 1818.3c-4.9 7.8-32.3 6.2-48.4-.4-2.1 12.4-21.4 22.7-31.8 14.1 1.2 6.7 2.1 15.2 1.8 23.7-2.8-2.1-5.6-3.1-7.6-.2-4.2 6.1-6 21.9 3.2 22.7-2.5 5.7-6.3 10-11.9 12.1 0 0-31.4 28.5-58.3-4.5-26.8-33.1 21.9-50.9 29.2-48-24.6-12.8.2-59.2 29.1-41.4 9.9-16.5 48.4-16.9 46.3 5 28.9-6.7 53.3 1.5 48.4 16.9M2977.3 3284.7c-.8-22.9-23.4-35.1-48-38.5-32.8-4.6-84 34.4-84 34.4-19.1.3-23.9-26.8-23.9-26.8l-41.6 12.1s.7 64.1 17.2 92.4c66.7.8 139.3-22.8 180.3-73.6" class="color1b2c49 svgShape"></path><path fill="#aecff1" d="M2796.9 3358.2c5.1 8.8 11.6 14.1 20.1 13.1 36-4.2 131.2-19.6 152.9-60 5.4-10.1 7.6-19 7.4-26.7-41 50.9-113.6 74.5-180.4 73.6" class="coloraecff1 svgShape"></path><path fill="#e65e75" d="M2869 3247.2s-2.1 46.5 2.1 34.7c4.3-11.8 8.4-40.8 17.4-42.8 9-2 8.7 30.8 18 27 9.4-3.8-5.4-35 3.4-36.4 8.8-1.5 15.4 27.3 21 26-5.5 2.2-14.8-14.5-17.4-20.7-2.6-6.2-5.6-.6-4.2 3.6 1.4 4.3 9.1 28.5-2.4 30.1-11.5 1.6-15-19.4-15.7-21.3-.6-1.8-4.8-4.9-6.6-.2-1.8 4.8-8.7 40.8-14.9 40.9-6 .2-5.4-31.5-.7-40.9" class="colore65e75 svgShape"></path><path fill="#1b2c49" d="M2462.4 3405c18.6-13.4 16-39 5.1-61.3-14.5-29.8-75.5-50.5-75.5-50.5-11-15.6 8.9-34.8 8.9-34.8l-43.6-28.8s-42.4 37.5-56.8 66.9c36.8 55.9 96.9 102.9 161.9 108.5" class="color1b2c49 svgShape"></path><path fill="#aecff1" d="M2300.6 3296.5c-4.4 9.1-5.2 17.5.4 24 23.6 27.5 89.6 97.9 135.2 93.3 11.4-1.2 20-4.3 26.2-8.8-65-5.6-125.1-52.6-161.8-108.5" class="coloraecff1 svgShape"></path><path fill="#e65e75" d="M2433 3294.3s-39.8 24.2-27.6 21.2c12.1-3 38.6-15.8 45.2-9.4 6.6 6.4-20.7 24.4-12.3 30 8.4 5.6 26-24 32.1-17.6 6.1 6.4-14 28.1-9.8 31.9-4.9-3.3 3.7-20.4 7.5-26s-2.6-5-5.3-1.4c-2.8 3.6-18.5 23.4-26.3 14.8-7.7-8.6 7.7-23.3 8.9-24.9 1.2-1.5 1.4-6.7-3.5-5.6-5 1.2-38.7 15.5-42.3 10.5-3.6-5 23-22.2 33.4-23.5" class="colore65e75 svgShape"></path><path fill="#b460d8" d="M2701.6 2031.8c-38.1-51.5-78.2-22.1-105.3 23.3.1 10.1 2.3 20.9 6.3 31.8 15.7 37.8 45.9 63.5 74 91.9l74.9-73.7c-.1-.1-10.4-19.9-49.9-73.3" class="colorb460d8 svgShape"></path><path fill="#643877" d="M2602.6 2086.8c-4.1-10.8-6.3-21.7-6.3-31.8-1 1.7-2.1 3.5-3.1 5.3-27.1 48.3 62.3 139.2 62.3 139.2l21.1-20.8c-28.1-28.4-58.3-54.1-74-91.9" class="color643877 svgShape"></path><path fill="#9374a3" d="M2526 2489.7c4.9 5.6 12.3 7.2 19.5 7.6 9.5.5 19.2-.6 28.6-1.4 20.2-1.7 40.4-4 60.6-2.4 2.6.2 2.6-3.9 0-4.1-19.2-1.5-38.5.5-57.6 2.1-9.3.8-18.6 1.7-27.8 1.7-7.2.1-15.3-.7-20.4-6.4-1.8-2-4.7.9-2.9 2.9M2602.2 2124.4c-2.4-4.6-5.9-8.5-8.7-12.9-2.7-4.3-4.5-9.1-5.4-14.2-1.9-10.1-.8-20.6.2-30.7.3-2.6-3.8-2.6-4.1 0-1.1 10.5-2.1 21.3-.1 31.8.9 4.9 2.6 9.7 5.1 14 2.9 4.9 6.8 9 9.4 14.1 1.3 2.3 4.9.2 3.6-2.1" class="color9374a3 svgShape"></path><path fill="#fcfcfc" d="M2674.5 1978.6c3.4 7.4 9.7 12.8 16.3 17.4 7 4.9 14.6 8.9 22.6 11.9 8 3 16.4 5 24.8 5.9 8.2.9 17.7 1.6 25.2-2.2 7.4-3.8 12.1-11.3 14.8-18.9.4-1.2-1.5-1.8-2-.5-2.4 6.8-6.4 13.5-12.8 17.2-7.1 4.1-16.4 3.3-24.3 2.6-15.8-1.6-31.1-7-44.4-15.7-7.3-4.8-14.7-10.5-18.4-18.7-.5-1.2-2.3-.2-1.8 1M2759.1 2038.7c7.9 0 7.9-12.3 0-12.3-7.9-.1-8 12.3 0 12.3M2767.9 2062.8c7.9 0 7.9-12.3 0-12.3-8 0-8 12.3 0 12.3M2775.2 2085.5c7.9 0 7.9-12.3 0-12.3s-7.9 12.3 0 12.3M2638 2175.3c3.2 4.1 6.2 8.8 9.9 12.5 2.7 2.8 6 1.8 8.7-.5 3.7-3 7.1-6.3 11-9 3.8-2.7 7.8-5.3 11.6-8.1 3.5-2.6 6.9-5.3 9.9-8.5 3.5-3.7 6.1-8.1 9.5-11.8 6.6-7.2 14.7-13 22-19.6 8.2-7.4 15.9-15.4 21.9-24.6.7-1.1-1.1-2.1-1.8-1-10.2 15.6-24.9 26.5-38.5 38.8-3.3 3-6.4 6.3-9.1 9.9-2.9 3.8-5.8 7.5-9.4 10.7-6.4 5.6-13.8 9.9-20.6 15-1.8 1.4-3.6 2.8-5.3 4.4-2.1 1.9-5 5.7-8.1 3.4-2-1.4-3.5-4.2-5-6.1-1.8-2.3-3.6-4.5-5.3-6.8-.8-1.1-2.2.3-1.4 1.3M2641.1 2597.9c28.8-1.5 56.9-15.7 74.6-38.6 5.1-6.6 9.2-14.2 9.6-22.7.1-1.3-2-1.3-2.1 0-.5 9.7-6.1 18.2-12.4 25.3-5.8 6.7-12.6 12.5-20 17.4-14.8 9.8-32.1 15.6-49.9 16.5-1.1.1-1.1 2.2.2 2.1M2790.3 2496.1c-3.1 28.3-8.2 56.3-14 84.2-5.8 27.7-11.8 55.5-18.3 83-3.6 15.3-8.1 30.3-13.7 45-.5 1.2 1.5 1.8 2 .5 10.1-26.5 15.8-54.1 22-81.7 6.2-27.9 12.4-55.8 17.3-83.9 2.7-15.6 5.1-31.3 6.8-47.1.1-1.3-2-1.3-2.1 0M2740.5 2725.5c-17 43.1-34.1 86.5-57.1 126.8-6.4 11.3-13.4 22.3-20.8 32.9-.8 1.1 1 2.1 1.8 1 26.7-38.1 46-80.5 63.5-123.4 5-12.2 9.8-24.5 14.6-36.7.4-1.3-1.6-1.9-2-.6M2654.5 2899.8c-5.9 7.1-8.5 15.8-12.5 23.9-4.5 9.2-11.1 16.9-17.8 24.5-.9 1 .6 2.4 1.5 1.5 6.4-7.3 13-14.8 17.4-23.5 4.3-8.3 6.8-17.6 12.9-24.9.8-1.1-.7-2.5-1.5-1.5M2616.5 2957.1c-7.3 12.8-17.6 23.1-26.5 34.7-8.2 10.7-13.3 23.7-23.2 33-1 .9.5 2.4 1.5 1.5 9.8-9.2 14.9-22 22.9-32.6 4.5-6 9.6-11.5 14.4-17.2 4.7-5.7 9-11.7 12.7-18.2.6-1.3-1.2-2.3-1.8-1.2M2562.6 3036.7l-17.9 18.2c-5.4 5.4-11.3 10.7-15.8 16.9-4.5 6.2-7.1 13.6-11.2 20.1-4 6.4-8.8 12.4-13.8 18.1-5.7 6.4-11.8 12.5-17.9 18.6-.9.9.5 2.4 1.5 1.5 10.4-10.4 20.9-20.9 29.3-33 4.4-6.3 7.5-13.2 11.2-19.9 3.9-7.1 10-12.5 15.7-18.2l20.4-20.7c.9-1.1-.6-2.6-1.5-1.6M2419.3 3215.7c1.9-7.7 9-13.3 14.2-18.9 5.9-6.2 11.6-12.6 17.1-19.1 11-12.9 21.3-26.3 30.9-40.2.8-1.1-1-2.1-1.8-1-10.1 14.5-20.9 28.5-32.5 41.9-5.6 6.5-11.3 12.8-17.2 19-5 5.2-11 10.4-12.8 17.7-.2 1.4 1.8 1.9 2.1.6M2633.4 2514c-1.3 4.5-1.6 9.2-.8 13.9.2 1.3 2.2.8 2-.5-.8-4.3-.5-8.6.8-12.8.4-1.3-1.6-1.9-2-.6M2631.1 2541.3c-1.4 5.1-2.2 10.4-2.3 15.6 0 1.3 2 1.3 2.1 0 .2-5.1.9-10.2 2.2-15.1.3-1.3-1.7-1.8-2-.5M2628.1 2573.8v13.9c0 1.3 2.1 1.3 2.1 0v-13.9c-.1-1.4-2.1-1.4-2.1 0M2630.4 2599.1c-.7 4.5-1.3 9-2 13.5-.1.6.1 1.1.7 1.3.5.1 1.2-.2 1.3-.7.7-4.5 1.3-9 2-13.5.1-.6-.1-1.1-.7-1.3-.5-.1-1.2.2-1.3.7M2628.9 2623.6c-.1 4.4-.2 8.8-.4 13.2 0 1.3 2 1.3 2.1 0 .1-4.4.2-8.8.4-13.2-.1-1.4-2.1-1.4-2.1 0M2627 2648.1v9.2c0 1.3 2.1 1.3 2.1 0v-9.2c-.1-1.3-2.1-1.3-2.1 0M2624.2 2669.3c.3 4.3.2 8.6-.3 12.8-.1.6.5 1 1 1 .6 0 1-.5 1-1 .5-4.3.6-8.5.3-12.8 0-1.3-2.1-1.3-2 0M2622.4 2694.7c-1.3 4.7-2 9.4-2.4 14.2-.1 1.3 2 1.3 2.1 0 .3-4.6 1.1-9.2 2.3-13.7.3-1.3-1.6-1.8-2-.5M2618.1 2720.1l-5.4 15.6c-.4 1.2 1.5 1.8 2 .5l5.4-15.6c.4-1.2-1.6-1.8-2-.5" class="colorfcfcfc svgShape"></path><path fill="#ffffff" d="M4671.8 2147.1c7.9 0 7.9-12.3 0-12.3-7.9-.1-7.9 12.3 0 12.3M4664.1 2173.8c7.9 0 7.9-12.3 0-12.3s-7.9 12.3 0 12.3M4657.2 2203.8c7.9 0 7.9-12.3 0-12.3-8 0-8 12.3 0 12.3" class="colorfff svgShape"></path><path fill="#723f3b" d="M4661.5 2124.7c-4.7 18.9-8.5 38.1-11.4 57.4-.6 4.3-1.3 8.7-1.8 13-.5 4.2-1.8 9.1-1.5 13.3.5 6.1 8.1 6.5 12.2 4 1.7-1 .2-3.7-1.6-2.7-3.3 2-7.1 1.3-7.4-3.7-.1-1.6.4-3.5.6-5.1.5-4.1 1-8.1 1.6-12.2 1-7 2.1-14 3.3-20.9 2.5-14.2 5.5-28.3 8.9-42.3.6-1.9-2.4-2.7-2.9-.8M4466.2 2344.2c-2.1 9.2-.7 19 3.8 27.3.9 1.7 3.6.2 2.7-1.6-4.1-7.6-5.4-16.5-3.5-24.9.4-2-2.5-2.8-3-.8M4474.9 2383.3c-1.9 11-3.6 22.7 1.5 33.1.9 1.8 3.5.2 2.7-1.6-4.8-9.6-3-20.6-1.2-30.7.3-1.9-2.7-2.7-3-.8" class="color723f3b svgShape"></path><path fill="#ffffff" d="M2358.6 945.2c-49.5 29.2 39 19.7 74.1 20.5 35.1.8 313.7-16.3 417.2-10.3s44.4-26.8 17.5-28.3c-27-1.4-459.4-11.1-508.8 18.1M2552.2 910.3c-27.4 3.1-175.3 12.1-195.6 6.7-20.2-5.4-21.2-64.8-6.7-65.7 14.5-.8 198.2-12.5 211.3.2 13.2 12.8 18.4 55.7-9 58.8" class="colorfff svgShape"></path><path fill="#ffc261" d="M2381.8 857.9c-10.3 0-18.7 8.4-18.7 18.7 0 10.3 8.4 18.7 18.7 18.7 10.3 0 18.7-8.4 18.7-18.7-.1-10.4-8.4-18.7-18.7-18.7m0 33c-7.9 0-14.3-6.4-14.3-14.3s6.4-14.3 14.3-14.3 14.3 6.4 14.3 14.3-6.4 14.3-14.3 14.3" class="colorffc261 svgShape"></path><path fill="#ffc261" d="M2398.8 893.9s16.1 14.4 18.8 12.2c2.6-2.2 3.3-3.3 0-5.1-3.3-1.9-22.1-14.4-23.1-13.7-1 .8-2.3 2.5 4.3 6.6" class="colorffc261 svgShape"></path><path fill="#ffffff" d="M2847.6 910.3c-27.4 3.1-175.3 12.1-195.6 6.7-20.2-5.4-21.2-64.8-6.7-65.7 14.5-.8 198.2-12.5 211.3.2 13.2 12.8 18.4 55.7-9 58.8" class="colorfff svgShape"></path><path fill="#ffc261" d="M2700.4 903.4c-5.2 1.8-35.8 2.8-38.8 0s-.1-39.9 2.7-38.6c2.9 1.2 36.1-.2 36.1-.2 6.6 16.8 5.2 37 0 38.8" class="colorffc261 svgShape"></path><path fill="#80dcdb" d="M2674.6 872.9c.3-.5.6-1.1 1.1-1.4.5-.4 1.2-.6 1.7-.3.3.1.6.4.8.7 3 3.5 9.4 8.9 8.4 10.9-1 2.1-6.3-.2-9.5-.3-1.8-.1-7.5.6-8.6-.7 1.8-3.1 4.3-5.8 6.1-8.9" class="color80dcdb svgShape"></path><path fill="#a3e7e6" d="M2682.6 876.2c21.2-8.8 19.1 8.3 7.9 8.5-11.2.2-8-7.2-7.9-8.5" class="colora3e7e6 svgShape"></path><path fill="#2fa09f" d="M2676.5 893.3c.2.8.4 1.7-.2 2.3 10-.7 18.5 4.3 14.3-9.7-5.2 2.2-18.5-2.6-14.1 7.4" class="color2fa09f svgShape"></path><path fill="#ffffff" d="M3145.1 910.3c-27.4 3.1-175.3 12.1-195.6 6.7-20.2-5.4-21.2-64.8-6.7-65.7 14.5-.8 198.2-12.5 211.3.2 13.2 12.8 18.4 55.7-9 58.8M3418.5 910.3c-27.4 3.1-175.3 12.1-195.6 6.7-20.2-5.4-21.2-64.8-6.7-65.7 14.5-.8 198.2-12.5 211.3.2 13.2 12.8 18.4 55.7-9 58.8M3711 910.3c-27.4 3.1-175.3 12.1-195.6 6.7-20.2-5.4-21.2-64.8-6.7-65.7 14.5-.8 198.2-12.5 211.3.2 13.2 12.8 18.4 55.7-9 58.8" class="colorfff svgShape"></path><path fill="#ffc261" d="M2968.9 861.4s-10.6-1.8-12.1 3.7-11.4 46.9 8.4 46.5c19.8-.4 45 .4 43.9-9.5-1.1-9.9-2.2-46.5-11.7-44.3-9.4 2.1-28.5 3.6-28.5 3.6" class="colorffc261 svgShape"></path><path fill="#ff1d25" d="M2972.2 875.7s-4.4 26.4 0 27.1c4.4.7 22.7-13.2 22.7-16.5 0-3.3-18.3-13.5-20.5-13.2-2.2.4-2.2 2.6-2.2 2.6" class="colorff1d25 svgShape"></path><path fill="#ffffff" d="M3464.8 857.5c0 4.2-3.4 7.6-7.6 7.6-4.2 0-7.6-3.4-7.6-7.6 0-4.2 3.4-7.6 7.6-7.6 4.2 0 7.6 3.4 7.6 7.6M3467.2 882.9c0 3.1-3.2 5.6-7.1 5.6-3.9 0-7.1-2.5-7.1-5.6 0-3.1 3.2-5.6 7.1-5.6 4 0 7.1 2.5 7.1 5.6M3470.2 906.1c0 3.2-4.6 5.9-10.3 5.9-5.7 0-10.2-2.6-10.2-5.9 0-3.2 4.6-5.9 10.2-5.9 5.7 0 10.3 2.6 10.3 5.9M2348.5 1032.7s-43.7 210.1 46.7 221c90.4 10.9 385.1 33.6 380.7-25.7-4.4-59.2 13-202.7-26.7-200.2-39.6 2.5-386 0-386 0s-12.5-7.5-14.7 4.9" class="colorfff svgShape"></path><path fill="#ffa730" d="m2550.3 1145.6 77.4-2.1c.7 14.1 0 25.7-2 34.8-2.7 11.3-7.8 21.7-15.4 31.2-8.1 10.1-18.2 18-30.2 23.8-12 5.7-24.6 8.8-37.7 9.1-26.5.7-49.3-8-68.4-26.2-19.1-18.1-29.1-40.5-29.8-66.9-.7-27.1 8-50.2 26.3-69.4 18.2-19.1 40.9-29.1 68-29.8 31.9-.9 58.4 11.8 79.7 38.1l-14.7 14.4c-17.2-22.9-38.8-34-64.8-33.3-21.4.6-39.1 8.6-53.4 24.1-14.2 15.5-21 34-20.5 55.6.5 20.4 8.4 38 23.5 52.8 15.1 14.8 32.8 21.9 53 21.4 17.2-.5 32.2-6.2 44.9-17.2 13.7-11.5 20.3-25.8 19.8-42.7l-55.2 1.5-.5-19.2z" class="colorffa730 svgShape"></path><path fill="#ffffff" d="M2812.6 1032.7s-43.7 210.1 46.7 221c90.4 10.9 385.1 33.6 380.7-25.7-4.4-59.2 13-202.7-26.7-200.2s-386 0-386 0-12.5-7.5-14.7 4.9" class="colorfff svgShape"></path><path fill="#ffa730" d="m3014.4 1145.6 77.4-2.1c.7 14.1 0 25.7-2 34.8-2.7 11.3-7.8 21.7-15.4 31.2-8.1 10.1-18.2 18-30.2 23.8-12 5.7-24.6 8.8-37.7 9.1-26.5.7-49.3-8-68.4-26.2-19.1-18.1-29.1-40.5-29.8-66.9-.7-27.1 8-50.2 26.3-69.4 18.2-19.1 40.9-29.1 68-29.8 31.9-.9 58.4 11.8 79.7 38.1l-14.7 14.4c-17.2-22.9-38.8-34-64.8-33.3-21.4.6-39.1 8.6-53.4 24.1-14.2 15.5-21 34-20.5 55.6.5 20.4 8.4 38 23.5 52.8 15.1 14.8 32.8 21.9 53 21.4 17.2-.5 32.2-6.2 44.9-17.2 13.7-11.5 20.3-25.8 19.8-42.7l-55.2 1.5-.5-19.2z" class="colorffa730 svgShape"></path><path fill="#ffffff" d="M3289.4 1032.7s-43.7 210.1 46.7 221c90.4 10.9 385.1 33.6 380.7-25.7-4.4-59.2 13-202.7-26.7-200.2s-386 0-386 0-12.4-7.5-14.7 4.9" class="colorfff svgShape"></path><path fill="#ffa730" d="m3491.2 1145.6 77.4-2.1c.7 14.1 0 25.7-2 34.8-2.7 11.3-7.8 21.7-15.4 31.2-8.1 10.1-18.2 18-30.2 23.8-12 5.7-24.6 8.8-37.7 9.1-26.5.7-49.3-8-68.4-26.2-19.1-18.1-29.1-40.5-29.8-66.9-.7-27.1 8-50.2 26.3-69.4 18.2-19.1 40.9-29.1 68-29.8 31.9-.9 58.4 11.8 79.7 38.1l-14.7 14.4c-17.2-22.9-38.8-34-64.8-33.3-21.4.6-39.1 8.6-53.4 24.1-14.2 15.5-21 34-20.5 55.6.5 20.4 8.4 38 23.5 52.8 15.1 14.8 32.8 21.9 53 21.4 17.2-.5 32.2-6.2 44.9-17.2 13.7-11.5 20.3-25.8 19.8-42.7l-55.2 1.5-.5-19.2zM4211.5 1100.3l48.9-1.3c.4 8.9 0 16.3-1.3 22-1.7 7.1-4.9 13.7-9.8 19.7-5.1 6.4-11.5 11.4-19.1 15-7.6 3.6-15.5 5.6-23.8 5.8-16.7.4-31.1-5.1-43.2-16.5-12.1-11.5-18.4-25.6-18.8-42.3-.5-17.1 5.1-31.7 16.6-43.8 11.5-12.1 25.8-18.4 43-18.8 20.1-.5 36.9 7.5 50.4 24.1l-9.3 9.1c-10.9-14.5-24.5-21.5-40.9-21-13.5.4-24.7 5.4-33.7 15.2-9 9.8-13.3 21.5-12.9 35.1.3 12.9 5.3 24 14.8 33.3 9.5 9.4 20.7 13.9 33.5 13.5 10.9-.3 20.4-3.9 28.4-10.9 8.6-7.3 12.8-16.3 12.5-27l-34.9.9-.4-12.1z" class="colorffa730 svgShape"></path><path fill="#ff1d25" d="M2913.4 1477.9s-9.3-20-25.9-33.7c-16.6-13.7-22.9-54.2 17.6-56.6 40.5-2.4 36.6 26.4 36.1 34.2-.5 7.8-6.8 59.5-27.8 56.1" class="colorff1d25 svgShape"></path><path fill="#f2f2f2" d="M2891.5 1420.6c-1.4 6-8.4 17.2 9.3 16.8 17.8-.4 26.4.2 26.9-7 .5-7.1 2-10.8-2-11.9-4-1.1-32.9-4-34.2 2.1" class="colorf2f2f2 svgShape"></path><path fill="#f2f2f2" d="M2898.3 1420.7c.6.2-6.2-15.9 5.3-15.9s21.1-1.8 20.9 5.3c-.2 7.1 0 11.7 0 11.7h-2.2s0-9.7-1.1-12.3c-1.1-2.6-18.9-3.1-20.1-1.6-1.3 1.5.4 13.9.4 13.9l-3.2-1.1z" class="colorf2f2f2 svgShape"></path><text font-family="MyriadPro-Regular" font-size="49.317" transform="translate(2823.674 1369.514)" svgjs:data="{&quot;leading&quot;:&quot;1.3&quot;}">G-Shop</text><text fill="#2c64ad" font-family="MyriadPro-Regular" font-size="49.317" transform="translate(2917.076 1807.938)" svgjs:data="{&quot;leading&quot;:&quot;1.3&quot;}">G-Shop</text><path fill="#2c64ad" d="M2500.2 1302.8c-1.9.7-5.7 1.8-10.2 1.8-5 0-9.2-1.3-12.4-4.4-2.9-2.8-4.6-7.2-4.6-12.4 0-9.9 6.9-17.2 18-17.2 3.8 0 6.9.8 8.3 1.5l-1 3.5c-1.8-.8-4-1.4-7.3-1.4-8.1 0-13.4 5-13.4 13.4s5.1 13.4 12.8 13.4c2.8 0 4.7-.4 5.7-.9v-9.9h-6.8v-3.5h10.9v16.1zM2504.5 1289.3h12.2v3.2h-12.2zM2521.4 1299c1.9 1.2 4.7 2.2 7.7 2.2 4.4 0 7-2.3 7-5.7 0-3.1-1.8-4.9-6.3-6.6-5.4-1.9-8.8-4.7-8.8-9.4 0-5.2 4.3-9 10.7-9 3.4 0 5.9.8 7.3 1.6l-1.2 3.5c-1.1-.6-3.3-1.6-6.3-1.6-4.5 0-6.3 2.7-6.3 5 0 3.1 2 4.6 6.6 6.4 5.6 2.2 8.5 4.9 8.5 9.8 0 5.1-3.8 9.6-11.6 9.6-3.2 0-6.7-.9-8.5-2.1l1.2-3.7zM2546.1 1269.3h4.3v14.9h.1c.7-1.2 1.8-2.3 3.1-3.1 1.3-.7 2.8-1.2 4.4-1.2 3.2 0 8.3 2 8.3 10.2v14.2h-4.3v-13.7c0-3.8-1.4-7.1-5.5-7.1-2.8 0-5 2-5.8 4.3-.2.6-.3 1.2-.3 2.1v14.4h-4.3v-35zM2595.1 1292.1c0 8.8-6.1 12.7-11.9 12.7-6.5 0-11.4-4.7-11.4-12.3 0-8 5.2-12.7 11.8-12.7 6.8.1 11.5 5.1 11.5 12.3m-18.9.3c0 5.2 3 9.2 7.2 9.2 4.1 0 7.2-3.9 7.2-9.3 0-4-2-9.2-7.1-9.2s-7.3 4.8-7.3 9.3M2600.6 1288.2c0-3.1-.1-5.5-.2-7.8h3.9l.2 4.1h.1c1.8-2.9 4.6-4.6 8.5-4.6 5.8 0 10.1 4.9 10.1 12.1 0 8.6-5.2 12.8-10.8 12.8-3.2 0-5.9-1.4-7.3-3.7h-.1v13h-4.3v-25.9zm4.3 6.4c0 .6.1 1.2.2 1.8.8 3 3.4 5.1 6.5 5.1 4.6 0 7.2-3.7 7.2-9.2 0-4.8-2.5-8.9-7.1-8.9-3 0-5.7 2.1-6.6 5.4-.1.5-.3 1.2-.3 1.8v4zM2626.4 1301.7c0-1.8 1.2-3.1 3-3.1 1.7 0 2.9 1.3 2.9 3.1s-1.1 3.1-3 3.1c-1.7 0-2.9-1.3-2.9-3.1M2654.7 1303.4c-1.1.6-3.6 1.4-6.9 1.4-7.2 0-11.9-4.9-11.9-12.2 0-7.3 5-12.7 12.8-12.7 2.6 0 4.8.6 6 1.2l-1 3.3c-1-.6-2.7-1.1-5-1.1-5.5 0-8.4 4-8.4 9 0 5.5 3.5 8.9 8.3 8.9 2.5 0 4.1-.6 5.3-1.2l.8 3.4zM2681 1292.1c0 8.8-6.1 12.7-11.9 12.7-6.5 0-11.4-4.7-11.4-12.3 0-8 5.2-12.7 11.8-12.7 6.9.1 11.5 5.1 11.5 12.3m-18.9.3c0 5.2 3 9.2 7.2 9.2 4.1 0 7.2-3.9 7.2-9.3 0-4-2-9.2-7.1-9.2s-7.3 4.8-7.3 9.3M2686.5 1286.9c0-2.5-.1-4.5-.2-6.5h3.8l.2 3.8h.1c1.3-2.3 3.5-4.4 7.5-4.4 3.3 0 5.7 2 6.8 4.8h.1c.7-1.3 1.7-2.4 2.7-3.1 1.4-1.1 3-1.7 5.3-1.7 3.2 0 7.8 2.1 7.8 10.4v14h-4.2v-13.5c0-4.6-1.7-7.3-5.2-7.3-2.5 0-4.4 1.8-5.1 3.9-.2.6-.3 1.4-.3 2.2v14.7h-4.2V1290c0-3.8-1.7-6.6-5-6.6-2.7 0-4.7 2.2-5.4 4.3-.2.6-.3 1.4-.3 2.1v14.4h-4.2v-17.3zM2972.3 1301c-1.9.7-5.7 1.8-10.2 1.8-5 0-9.2-1.3-12.4-4.4-2.9-2.8-4.6-7.2-4.6-12.4 0-9.9 6.9-17.2 18-17.2 3.8 0 6.9.8 8.3 1.5l-1 3.5c-1.8-.8-4-1.4-7.3-1.4-8.1 0-13.4 5-13.4 13.4s5.1 13.4 12.8 13.4c2.8 0 4.7-.4 5.7-.9v-9.9h-6.8v-3.5h10.9v16.1zM2976.6 1287.5h12.2v3.2h-12.2zM2993.5 1297.2c1.9 1.2 4.7 2.2 7.7 2.2 4.4 0 7-2.3 7-5.7 0-3.1-1.8-4.9-6.3-6.6-5.4-1.9-8.8-4.7-8.8-9.4 0-5.2 4.3-9 10.7-9 3.4 0 5.9.8 7.3 1.6l-1.2 3.5c-1.1-.6-3.3-1.6-6.3-1.6-4.5 0-6.3 2.7-6.3 5 0 3.1 2 4.6 6.6 6.4 5.6 2.2 8.5 4.9 8.5 9.8 0 5.1-3.8 9.6-11.6 9.6-3.2 0-6.7-.9-8.5-2.1l1.2-3.7zM3018.2 1267.5h4.3v14.9h.1c.7-1.2 1.8-2.3 3.1-3.1 1.3-.7 2.8-1.2 4.4-1.2 3.2 0 8.3 2 8.3 10.2v14.2h-4.3v-13.7c0-3.8-1.4-7.1-5.5-7.1-2.8 0-5 2-5.8 4.3-.2.6-.3 1.2-.3 2.1v14.4h-4.3v-35zM3067.2 1290.3c0 8.8-6.1 12.7-11.9 12.7-6.5 0-11.4-4.7-11.4-12.3 0-8 5.2-12.7 11.8-12.7 6.8 0 11.5 5 11.5 12.3m-19 .3c0 5.2 3 9.2 7.2 9.2 4.1 0 7.2-3.9 7.2-9.3 0-4-2-9.2-7.1-9.2-5 0-7.3 4.7-7.3 9.3M3072.7 1286.4c0-3.1-.1-5.5-.2-7.8h3.9l.2 4.1h.1c1.8-2.9 4.6-4.6 8.5-4.6 5.8 0 10.1 4.9 10.1 12.1 0 8.6-5.2 12.8-10.8 12.8-3.2 0-5.9-1.4-7.3-3.7h-.1v13h-4.3v-25.9zm4.2 6.3c0 .6.1 1.2.2 1.8.8 3 3.4 5.1 6.5 5.1 4.6 0 7.2-3.7 7.2-9.2 0-4.8-2.5-8.9-7.1-8.9-3 0-5.7 2.1-6.6 5.4-.1.5-.3 1.2-.3 1.8v4zM3098.5 1299.9c0-1.8 1.2-3.1 3-3.1 1.7 0 2.9 1.3 2.9 3.1s-1.1 3.1-3 3.1c-1.7 0-2.9-1.3-2.9-3.1M3126.7 1301.6c-1.1.6-3.6 1.4-6.9 1.4-7.2 0-11.9-4.9-11.9-12.2 0-7.3 5-12.7 12.8-12.7 2.6 0 4.8.6 6 1.2l-1 3.3c-1-.6-2.7-1.1-5-1.1-5.5 0-8.4 4-8.4 9 0 5.5 3.5 8.9 8.3 8.9 2.5 0 4.1-.6 5.3-1.2l.8 3.4zM3153.1 1290.3c0 8.8-6.1 12.7-11.9 12.7-6.5 0-11.4-4.7-11.4-12.3 0-8 5.2-12.7 11.8-12.7 6.9 0 11.5 5 11.5 12.3m-18.9.3c0 5.2 3 9.2 7.2 9.2 4.1 0 7.2-3.9 7.2-9.3 0-4-2-9.2-7.1-9.2s-7.3 4.7-7.3 9.3M3158.6 1285c0-2.5-.1-4.5-.2-6.5h3.8l.2 3.8h.1c1.3-2.3 3.5-4.4 7.5-4.4 3.3 0 5.7 2 6.8 4.8h.1c.7-1.3 1.7-2.4 2.7-3.1 1.4-1.1 3-1.7 5.3-1.7 3.2 0 7.8 2.1 7.8 10.4v14h-4.2v-13.5c0-4.6-1.7-7.3-5.2-7.3-2.5 0-4.4 1.8-5.1 3.9-.2.6-.3 1.4-.3 2.2v14.7h-4.2V1288c0-3.8-1.7-6.6-5-6.6-2.7 0-4.7 2.2-5.4 4.3-.2.6-.3 1.4-.3 2.1v14.4h-4.2V1285z" class="color2c64ad svgShape"></path><text transform="translate(3423.773 1302.45)" svgjs:data="{&quot;leading&quot;:&quot;1.3&quot;}"><tspan x="0" y="0" fill="#2c64ad" font-family="MyriadPro-Regular" font-size="49.317">G-Sho</tspan><tspan x="125.8" y="0" fill="#2c64ad" font-family="MyriadPro-Regular" font-size="49.317" letter-spacing="-1">p</tspan><tspan x="152.7" y="0" fill="#2c64ad" font-family="MyriadPro-Regular" font-size="49.317">.</tspan><tspan x="162.9" y="0" fill="#2c64ad" font-family="MyriadPro-Regular" font-size="49.317">c</tspan><tspan x="184.7" y="0" fill="#2c64ad" font-family="MyriadPro-Regular" font-size="49.317">om</tspan></text><path fill="#22559f" d="M2722 1159.3s-29.3-3.9-27.6 19.2c1.7 23.1 27.6 17.5 27.6 17.5s18.6 0 18.6 13.5-29.8 15.5-38.9 8.6c-1.7-5.2 12-6.7 15.7-4.5 3.7 2.3 24.5-5.6 9.6-10.4-14.9-4.8-25.8.4-32.7-9.3-7-9.7-9.4-36.8 10.2-38.7 19.6-2.1 25.6.4 17.5 4.1" class="color22559f svgShape"></path><path fill="#22559f" d="M2709.4 1144.4c1.3 13.2 2.5 111.3 8.2 110.9 5.7-.4.3-111.1-2.7-114.3-2.9-3.2-5.9-.9-5.5 3.4M3192.5 1159.3s-29.3-3.9-27.6 19.2c1.7 23.1 27.6 17.5 27.6 17.5s18.6 0 18.6 13.5-29.8 15.5-38.9 8.6c-1.7-5.2 12-6.7 15.7-4.5 3.7 2.3 24.5-5.6 9.6-10.4-14.9-4.8-25.8.4-32.7-9.3-7-9.7-9.4-36.8 10.2-38.7 19.6-2.1 25.5.4 17.5 4.1" class="color22559f svgShape"></path><path fill="#22559f" d="M3179.9 1144.4c1.3 13.2 2.5 111.3 8.2 110.9 5.7-.4.3-111.1-2.7-114.3-3-3.2-5.9-.9-5.5 3.4M3663 1159.3s-29.3-3.9-27.6 19.2c1.7 23.1 27.6 17.5 27.6 17.5s18.6 0 18.6 13.5-29.8 15.5-38.9 8.6c-1.7-5.2 12-6.7 15.7-4.5 3.7 2.3 24.5-5.6 9.6-10.4-14.9-4.8-25.8.4-32.7-9.3-7-9.7-9.4-36.8 10.2-38.7 19.6-2.1 25.5.4 17.5 4.1" class="color22559f svgShape"></path><path fill="#22559f" d="M3650.4 1144.4c1.3 13.2 2.5 111.3 8.2 110.9 5.7-.4.3-111.1-2.7-114.3-3-3.2-5.9-.9-5.5 3.4" class="color22559f svgShape"></path></svg></g></svg>